<svg width="353" height="400" viewBox="0 0 353 400" fill="none" xmlns="http://www.w3.org/2000/svg">
<g clip-path="url(#clip0_1_784)">
<path d="M226.59 296.148C227.381 296.57 228.283 296.74 229.173 296.633C230.064 296.526 230.9 296.148 231.568 295.55C232.236 294.952 232.705 294.162 232.91 293.289C233.115 292.416 233.046 291.501 232.714 290.668C232.803 290.225 232.867 289.907 232.956 289.464C234.667 287.866 236.816 286.817 239.128 286.449C241.44 286.081 243.808 286.412 245.931 287.399C248.053 288.386 249.832 289.985 251.04 291.99C252.248 293.995 252.83 296.315 252.711 298.653C252.169 311.837 252.82 326.063 244.058 336.691C284.051 304.01 302.287 248.336 290.073 198.262C284.08 189.911 281.285 178.817 283.972 168.764C287.345 172.044 293.919 171.163 292.914 165.485C292.375 163.241 291.818 161.003 291.279 158.759C314.314 149.771 320.328 184.022 293.042 197.967C295.255 207.487 296.468 217.212 296.659 226.984C299.739 218.173 304.867 210.218 311.622 203.776C318.161 197.888 326.808 194.426 334.852 190.475C344.641 185.656 355.505 195.211 351.65 205.411C345.134 204.577 340.524 212.365 346.437 216.551C336.051 233.993 316.137 245.08 295.904 245.256C293.858 265.158 287.593 284.396 277.527 301.687C290.453 282.033 315.466 287.691 335.234 286.854C336.546 286.689 337.877 286.909 339.066 287.487C340.255 288.065 341.249 288.977 341.929 290.111C342.608 291.245 342.943 292.552 342.892 293.873C342.841 295.194 342.407 296.472 341.642 297.55C339.042 297.398 336.432 297.504 333.853 297.867C332.639 298.047 331.511 298.598 330.623 299.444C329.735 300.29 329.131 301.39 328.892 302.593C328.654 303.796 328.793 305.043 329.292 306.164C329.79 307.285 330.623 308.224 331.676 308.853C314.335 324.75 287.464 328.167 266.375 318.023C260.14 325.877 253.106 333.062 245.385 339.461L214.032 324.516C214.085 324.114 214.156 323.706 214.221 323.309C217.036 324.875 220.032 326.091 223.142 326.928C219.798 314.177 216.07 306.709 226.589 296.148H226.59Z" fill="#F2F2F2"/>
<path d="M171.188 265.985C170.615 266.675 169.844 267.172 168.979 267.408C168.114 267.645 167.197 267.61 166.352 267.308C165.508 267.007 164.776 266.453 164.257 265.721C163.738 264.99 163.456 264.117 163.45 263.22C163.2 262.843 163.021 262.572 162.771 262.196C160.584 261.362 158.198 261.2 155.918 261.732C153.638 262.263 151.569 263.463 149.976 265.178C148.383 266.893 147.338 269.044 146.976 271.357C146.613 273.669 146.95 276.037 147.942 278.157C153.417 290.163 158.18 303.584 170.304 310.122C120.937 294.941 83.0483 250.258 75.4716 199.276C77.8719 189.281 76.2764 177.953 69.9953 169.656C68.1092 173.966 61.6881 175.63 60.4767 169.992C60.1294 167.71 59.802 165.428 59.4545 163.146C34.7306 163.51 42.0803 197.5 72.611 200.122C74.1519 209.774 76.6975 219.238 80.2064 228.36C74.03 221.362 66.2802 215.93 57.5947 212.51C49.3175 209.524 40.0034 209.579 31.0633 208.955C20.1798 208.184 13.7227 221.131 21.1395 229.123C26.8598 225.893 34.0679 231.368 30.1703 237.474C46.3681 249.711 68.993 252.466 87.7979 244.997C97.2002 262.658 110.259 278.111 126.103 290.328C106.719 277.001 85.6873 291.677 67.0637 298.359C65.7866 298.7 64.6366 299.406 63.7538 300.39C62.8711 301.374 62.2938 302.594 62.0924 303.9C61.891 305.207 62.0742 306.544 62.6196 307.748C63.165 308.952 64.0491 309.971 65.164 310.682C67.5149 309.56 69.9714 308.674 72.4974 308.037C73.6889 307.746 74.9413 307.83 76.0829 308.279C77.2244 308.727 78.1994 309.518 78.874 310.542C79.5486 311.567 79.8899 312.775 79.8511 314C79.8123 315.226 79.3953 316.41 78.6572 317.39C100.714 325.572 126.888 318.601 142.593 301.251C151.33 306.173 160.555 310.174 170.12 313.188L193.519 287.52C193.318 287.168 193.099 286.817 192.889 286.474C190.873 288.986 188.556 291.242 185.991 293.191C184.279 280.12 184.914 271.798 171.189 265.984L171.188 265.985Z" fill="#F2F2F2"/>
<path d="M177.21 157.523C178.103 157.433 178.946 157.071 179.625 156.486C180.305 155.9 180.788 155.12 181.009 154.251C181.231 153.382 181.18 152.466 180.863 151.627C180.546 150.788 179.979 150.066 179.239 149.56C179.066 149.143 178.941 148.843 178.768 148.425C179.298 146.145 180.497 144.076 182.211 142.481C183.925 140.887 186.076 139.841 188.388 139.477C190.701 139.114 193.069 139.449 195.189 140.44C197.31 141.431 199.086 143.032 200.291 145.039C207.192 156.286 215.664 167.732 214.316 181.441C229.295 132.012 213.392 75.6279 175.334 40.8691C165.703 37.2781 157.197 29.6274 153.823 19.7835C158.452 20.626 163.418 16.229 159.418 12.0754C157.719 10.5129 156.009 8.9666 154.31 7.40408C168.421 -12.901 192.51 12.179 177.634 38.9689C184.78 45.6376 191.208 53.0351 196.815 61.0406C194.46 52.0085 194.282 42.5461 196.297 33.4319C198.443 24.8981 203.69 17.2029 208.166 9.43859C213.605 -0.0199144 227.95 1.85471 230.438 12.471C224.564 15.412 225.079 24.4484 232.321 24.626C233.424 44.8962 223.074 65.2026 206.376 76.6298C215.774 94.2925 221.299 113.755 222.584 133.722C222.356 110.199 246.276 100.95 262.219 89.2335C263.216 88.3649 264.443 87.8052 265.753 87.6226C267.062 87.4399 268.396 87.6423 269.592 88.2049C270.789 88.7676 271.795 89.6662 272.49 90.7912C273.184 91.9162 273.536 93.2189 273.502 94.5404C271.258 95.8637 269.151 97.4065 267.212 99.1463C266.305 99.972 265.676 101.058 265.411 102.256C265.145 103.453 265.256 104.703 265.729 105.835C266.202 106.967 267.013 107.924 268.052 108.577C269.091 109.229 270.306 109.545 271.53 109.48C265.998 132.345 245.597 150.164 222.434 153.501C221.637 163.497 219.804 173.384 216.963 183.001L182.602 188.075C182.422 187.711 182.253 187.334 182.086 186.968C185.296 186.698 188.461 186.037 191.51 184.998C181.624 176.278 174.366 172.156 177.209 157.524L177.21 157.523Z" fill="#F2F2F2"/>
<path d="M211.769 146.506C196.126 146.506 187.641 144.594 184.678 140.514C182.063 136.914 183.816 132.163 185.846 126.663C187.304 122.71 188.958 118.229 188.958 113.794C188.958 92.2247 199.895 81.2878 221.464 81.2878C232.196 81.2878 243.719 86.9887 252.288 96.538C260.078 105.219 263.959 115.609 262.936 125.043C262.096 132.781 258.495 137.869 251.602 141.057L251.198 141.244L251.084 140.815C250.489 138.594 249.481 136.505 248.114 134.657C247.981 137.558 247.25 140.401 245.966 143.006L245.892 143.155L245.733 143.2C237.932 145.422 228.673 146.024 221.478 146.3C217.977 146.437 214.74 146.505 211.769 146.506Z" fill="#171717"/>
<path d="M216.032 176.559C215.433 174.797 214.422 173.203 213.083 171.909C211.744 170.616 210.115 169.66 208.333 169.122C206.551 168.584 204.666 168.479 202.835 168.815C201.004 169.151 199.28 169.919 197.805 171.055L146.35 201.818L130.249 162.532C131.61 160.537 132.303 158.162 132.23 155.748C132.157 153.334 131.321 151.006 129.843 149.096C128.365 147.187 126.32 145.794 124.001 145.119C121.683 144.443 119.21 144.52 116.937 145.336C114.665 146.153 112.709 147.669 111.351 149.666C109.994 151.663 109.303 154.038 109.379 156.452C109.454 158.866 110.293 161.193 111.773 163.101C113.253 165.009 115.3 166.399 117.619 167.072C118.612 178.401 124.127 229.037 143.313 227.196C159.44 225.649 199.49 198.977 211.929 189.729C213.919 188.251 215.389 186.179 216.126 183.812C216.864 181.446 216.831 178.906 216.032 176.559Z" fill="#FFB6B6"/>
<path d="M254.807 400H210.023L202.513 362.868L200.077 400H158.476C158.492 370.84 160.011 341.7 163.027 312.696L163.543 310.94L164.357 308.13L164.873 306.367L173.482 276.804L174.162 274.458H226C228.983 277.26 231.735 280.299 234.228 283.545C235.072 284.621 235.954 285.787 236.858 287.042C237.486 287.931 238.136 288.865 238.786 289.844C244.562 298.443 248.88 307.937 251.564 317.942V317.949C252.02 319.661 252.424 321.412 252.775 323.203V323.21C253.089 324.802 253.365 326.416 253.582 328.067C253.746 329.271 253.888 330.489 253.993 331.722C254.616 338.553 254.398 345.434 253.343 352.212L254.807 400Z" fill="#171717"/>
<path d="M17.362 60.4699C20.2704 59.3441 21.9932 56.7912 21.21 54.768C20.4268 52.7448 17.4342 52.0173 14.5258 53.1431C11.6174 54.269 9.8946 56.8218 10.6778 58.845C11.461 60.8682 14.4536 61.5957 17.362 60.4699Z" fill="#E6E6E6"/>
<path d="M53.981 55.7724C56.8894 54.6465 58.6122 52.0937 57.829 50.0705C57.0458 48.0473 54.0532 47.3198 51.1448 48.4456C48.2364 49.5715 46.5136 52.1243 47.2968 54.1475C48.08 56.1707 51.0726 56.8982 53.981 55.7724Z" fill="#171717"/>
<path d="M14.1861 91.7121C17.0945 90.5862 18.8174 88.0334 18.0342 86.0102C17.251 83.987 14.2584 83.2595 11.35 84.3853C8.44157 85.5112 6.71875 88.064 7.50194 90.0872C8.28513 92.1104 11.2778 92.8379 14.1861 91.7121Z" fill="#FF6584"/>
<path d="M3.5925 105.493C4.92677 105.177 5.64041 103.366 5.18643 101.448C4.73245 99.5304 3.28276 98.2315 1.94849 98.5473C0.614217 98.8631 -0.0993985 100.674 0.35458 102.592C0.808559 104.51 2.25822 105.809 3.5925 105.493Z" fill="#E6E6E6"/>
<path d="M3.37462 128.825C4.70889 128.509 5.4225 126.698 4.96853 124.78C4.51455 122.862 3.06488 121.563 1.73061 121.879C0.396337 122.195 -0.317279 124.006 0.1367 125.924C0.590679 127.842 2.04034 129.141 3.37462 128.825Z" fill="#171717"/>
<path d="M35.5141 80.4992C36.8484 80.1834 37.562 78.3725 37.108 76.4545C36.654 74.5364 35.2044 73.2376 33.8701 73.5534C32.5358 73.8692 31.8222 75.6801 32.2762 77.5981C32.7302 79.5161 34.1798 80.815 35.5141 80.4992Z" fill="#E6E6E6"/>
<path d="M16.2278 75.8158C17.5621 75.5 18.2757 73.6891 17.8217 71.7711C17.3677 69.8531 15.9181 68.5543 14.5838 68.8701C13.2495 69.1859 12.5359 70.9968 12.9899 72.9148C13.4439 74.8328 14.8935 76.1317 16.2278 75.8158Z" fill="#FF6584"/>
<path d="M36.6699 54.3312C38.0041 54.0154 38.7178 52.2045 38.2638 50.2865C37.8098 48.3685 36.3601 47.0696 35.0259 47.3854C33.6916 47.7013 32.978 49.5121 33.432 51.4302C33.8859 53.3482 35.3356 54.647 36.6699 54.3312Z" fill="#171717"/>
<path d="M46.177 215.815C47.5833 214.163 46.7981 211.185 44.4232 209.164C42.0484 207.142 38.9832 206.843 37.577 208.495C36.1707 210.147 36.9559 213.125 39.3308 215.146C41.7056 217.168 44.7708 217.467 46.177 215.815Z" fill="#E6E6E6"/>
<path d="M24.6102 185.85C26.0165 184.198 25.2313 181.22 22.8564 179.199C20.4816 177.177 17.4164 176.878 16.0102 178.53C14.6039 180.182 15.3891 183.16 17.764 185.181C20.1388 187.203 23.204 187.502 24.6102 185.85Z" fill="#171717"/>
<path d="M75.1625 203.732C76.5688 202.08 75.7835 199.102 73.4087 197.08C71.0339 195.059 67.9687 194.759 66.5624 196.412C65.1562 198.064 65.9414 201.042 68.3162 203.063C70.6911 205.085 73.7563 205.384 75.1625 203.732Z" fill="#FF6584"/>
<path d="M89.562 204.063C91.0325 202.75 91.4844 200.857 90.5714 199.834C89.6584 198.811 87.7262 199.046 86.2557 200.358C84.7852 201.671 84.3333 203.564 85.2463 204.587C86.1593 205.61 88.0915 205.375 89.562 204.063Z" fill="#E6E6E6"/>
<path d="M110.183 193.145C111.653 191.833 112.105 189.939 111.192 188.916C110.279 187.894 108.347 188.128 106.877 189.441C105.406 190.753 104.954 192.646 105.867 193.669C106.78 194.692 108.713 194.458 110.183 193.145Z" fill="#171717"/>
<path d="M52.384 187.893C53.8545 186.58 54.3064 184.687 53.3934 183.664C52.4803 182.641 50.5481 182.876 49.0776 184.188C47.6072 185.501 47.1552 187.394 48.0683 188.417C48.9813 189.44 50.9135 189.205 52.384 187.893Z" fill="#E6E6E6"/>
<path d="M57.4487 207.083C58.9191 205.77 59.371 203.877 58.458 202.854C57.545 201.831 55.6128 202.066 54.1423 203.378C52.6718 204.691 52.2199 206.584 53.1329 207.607C54.046 208.63 55.9782 208.395 57.4487 207.083Z" fill="#FF6584"/>
<path d="M28.8223 199.336C30.2928 198.024 30.7447 196.131 29.8317 195.108C28.9187 194.085 26.9865 194.319 25.516 195.632C24.0455 196.944 23.5936 198.838 24.5066 199.86C25.4197 200.883 27.3519 200.649 28.8223 199.336Z" fill="#171717"/>
<path d="M191.063 23.6311C193.01 22.6736 193.473 19.6288 192.096 16.8302C190.72 14.0317 188.026 12.5392 186.079 13.4966C184.132 14.4541 183.67 17.4989 185.046 20.2975C186.422 23.096 189.116 24.5886 191.063 23.6311Z" fill="#E6E6E6"/>
<path d="M198.951 59.6975C200.898 58.7401 201.36 55.6952 199.984 52.8966C198.608 50.0981 195.914 48.6056 193.967 49.563C192.02 50.5205 191.558 53.5653 192.934 56.3639C194.31 59.1624 197.004 60.655 198.951 59.6975Z" fill="#171717"/>
<path d="M159.663 23.2048C161.61 22.2474 162.072 19.2025 160.696 16.404C159.32 13.6054 156.626 12.1129 154.679 13.0703C152.732 14.0278 152.27 17.0726 153.646 19.8712C155.022 22.6698 157.716 24.1623 159.663 23.2048Z" fill="#FF6584"/>
<path d="M143.158 11.7591C145.029 11.1388 146.196 9.58094 145.765 8.27947C145.333 6.978 143.467 6.42577 141.596 7.04606C139.725 7.66635 138.558 9.22425 138.99 10.5257C139.421 11.8272 141.288 12.3794 143.158 11.7591Z" fill="#E6E6E6"/>
<path d="M119.897 13.5863C121.768 12.966 122.935 11.4081 122.503 10.1066C122.072 8.80514 120.206 8.25293 118.335 8.87322C116.464 9.49351 115.297 11.0514 115.728 12.3529C116.16 13.6543 118.026 14.2065 119.897 13.5863Z" fill="#171717"/>
<path d="M170.853 41.368C172.724 40.7477 173.891 39.1898 173.459 37.8883C173.028 36.5869 171.161 36.0347 169.29 36.6549C167.42 37.2752 166.253 38.8331 166.684 40.1346C167.116 41.4361 168.982 41.9883 170.853 41.368Z" fill="#E6E6E6"/>
<path d="M173.829 21.7457C175.699 21.1254 176.866 19.5675 176.435 18.266C176.003 16.9645 174.137 16.4123 172.266 17.0326C170.395 17.6529 169.228 19.2108 169.66 20.5123C170.091 21.8138 171.958 22.366 173.829 21.7457Z" fill="#FF6584"/>
<path d="M197.022 40.2266C198.893 39.6063 200.059 38.0484 199.628 36.747C199.196 35.4455 197.33 34.8933 195.459 35.5136C193.588 36.1339 192.421 37.6918 192.853 38.9932C193.284 40.2947 195.151 40.8469 197.022 40.2266Z" fill="#171717"/>
<path d="M204.203 152.511L228.875 151.24L240.335 169.347C240.335 169.347 261.896 172.952 260.401 198.359C258.907 223.767 234.168 246.062 234.168 246.062L235.225 259.293L233.389 264.541L233.624 267.487L236.13 270.608L236.388 273.835L234.168 278.942L237.187 283.831L173.718 277.682L171.397 269.227L174.782 264.687L172.891 258.765L175.734 253.07L177.217 234.977C177.217 234.977 160.998 210.611 179.617 192.258L187.09 179.554L195.451 169.353L204.203 152.511Z" fill="white"/>
<path d="M216.469 147.398C230.907 147.398 242.611 135.693 242.611 121.255C242.611 106.817 230.907 95.1123 216.469 95.1123C202.03 95.1123 190.326 106.817 190.326 121.255C190.326 135.693 202.03 147.398 216.469 147.398Z" fill="#FFB6B6"/>
<path d="M212.968 119.671C210.715 119.671 208.464 119.607 206.214 119.48L205.811 119.458L205.864 119.058C206.196 116.563 206.009 114.026 205.316 111.606C204.139 114.362 202.389 116.835 200.18 118.86L200.056 118.974L199.888 118.956C193.776 118.287 187.72 117.183 181.766 115.651L181.538 115.592L181.492 115.362C181.048 113.178 180.817 110.956 180.805 108.728C180.805 101.766 183.329 95.9068 187.912 92.2292C192.9 88.2261 200.051 86.995 208.054 88.7607H233.645C236.458 88.7638 239.155 89.8829 241.144 91.8722C243.134 93.8615 244.253 96.5588 244.256 99.3721V115.577L243.977 115.65C233.855 118.311 223.434 119.662 212.968 119.671Z" fill="#171717"/>
<path d="M34.5841 90.5911C33.4386 91.0101 32.506 91.8664 31.9909 92.9721C31.4759 94.0779 31.4205 95.3427 31.8369 96.4893L59.4437 172.24C59.8626 173.385 60.7189 174.318 61.8246 174.833C62.9303 175.348 64.1952 175.403 65.3417 174.987L172.488 135.938C173.634 135.519 174.566 134.663 175.081 133.557C175.596 132.451 175.652 131.186 175.235 130.04L147.629 54.2897C147.21 53.1441 146.353 52.2115 145.248 51.6964C144.142 51.1813 142.877 51.1259 141.731 51.5423L34.5841 90.5911Z" fill="#CCCCCC"/>
<path d="M132.61 146.295L67.0258 170.197C65.7918 170.645 64.4304 170.586 63.2404 170.031C62.0503 169.477 61.1287 168.473 60.6778 167.24L35.6388 98.5355C35.1906 97.3015 35.2502 95.9401 35.8045 94.75C36.3588 93.56 37.3626 92.6384 38.5955 92.1874L139.687 55.3451C140.921 54.897 142.283 54.9566 143.473 55.511C144.663 56.0653 145.585 57.0691 146.035 58.3021L158.134 91.4996C162.002 102.151 161.488 113.902 156.703 124.175C151.918 134.448 143.253 142.403 132.61 146.295Z" fill="white"/>
<path d="M85.4188 96.6618L69.8337 102.342C69.6382 102.413 69.4307 102.445 69.2228 102.436C69.015 102.427 68.811 102.377 68.6224 102.289C68.4338 102.201 68.2644 102.077 68.1238 101.924C67.9832 101.771 67.8742 101.591 67.8029 101.396C67.7317 101.2 67.6997 100.993 67.7087 100.785C67.7177 100.577 67.7675 100.373 67.8553 100.184C67.9432 99.9959 68.0673 99.8265 68.2206 99.6859C68.3739 99.5453 68.5534 99.4363 68.7488 99.365L84.334 93.6851C84.7287 93.5413 85.1644 93.5601 85.5452 93.7375C85.9261 93.9149 86.2209 94.2363 86.3647 94.631C86.5086 95.0257 86.4897 95.4614 86.3123 95.8423C86.1349 96.2231 85.8135 96.5179 85.4188 96.6618Z" fill="white"/>
<path d="M122.574 90.0165L72.0521 108.429C71.8566 108.5 71.6489 108.533 71.4409 108.524C71.2329 108.515 71.0287 108.465 70.8399 108.378C70.6511 108.29 70.4815 108.166 70.3407 108.012C70.2 107.859 70.0908 107.679 70.0196 107.484C69.9483 107.288 69.9162 107.08 69.9253 106.872C69.9344 106.664 69.9843 106.46 70.0723 106.271C70.1604 106.083 70.2847 105.913 70.4383 105.773C70.5918 105.632 70.7716 105.523 70.9673 105.452L121.489 87.0398C121.685 86.9686 121.892 86.9366 122.1 86.9456C122.308 86.9546 122.512 87.0044 122.7 87.0922C122.889 87.1801 123.058 87.3042 123.199 87.4575C123.34 87.6108 123.449 87.7903 123.52 87.9858C123.591 88.1812 123.623 88.3888 123.614 88.5966C123.605 88.8044 123.555 89.0084 123.468 89.197C123.38 89.3856 123.256 89.555 123.102 89.6956C122.949 89.8362 122.769 89.9453 122.574 90.0165Z" fill="white"/>
<path d="M125.12 97.0038L74.5986 115.416C74.4032 115.487 74.1956 115.52 73.9878 115.511C73.7799 115.502 73.5759 115.452 73.3873 115.364C73.1988 115.276 73.0293 115.152 72.8887 114.999C72.7481 114.845 72.6391 114.666 72.5679 114.47C72.4966 114.275 72.4646 114.067 72.4736 113.86C72.4826 113.652 72.5324 113.448 72.6203 113.259C72.7081 113.071 72.8322 112.901 72.9855 112.76C73.1388 112.62 73.3183 112.511 73.5138 112.44L124.036 94.0272C124.43 93.884 124.866 93.9032 125.246 94.0807C125.626 94.2582 125.921 94.5794 126.065 94.9738C126.208 95.3682 126.19 95.8035 126.013 96.1842C125.836 96.5648 125.515 96.8596 125.12 97.0038Z" fill="white"/>
<path d="M127.667 103.991L77.1451 122.404C76.9496 122.475 76.7419 122.507 76.5339 122.499C76.3259 122.49 76.1217 122.44 75.9329 122.352C75.7441 122.264 75.5745 122.14 75.4337 121.987C75.293 121.834 75.1838 121.654 75.1125 121.458C75.0413 121.263 75.0092 121.055 75.0183 120.847C75.0273 120.639 75.0773 120.435 75.1653 120.246C75.2534 120.057 75.3777 119.888 75.5313 119.747C75.6848 119.607 75.8646 119.498 76.0603 119.427L126.582 101.014C126.778 100.943 126.985 100.911 127.193 100.92C127.401 100.929 127.605 100.979 127.793 101.067C127.982 101.155 128.151 101.279 128.292 101.432C128.433 101.585 128.542 101.765 128.613 101.96C128.684 102.156 128.716 102.363 128.707 102.571C128.698 102.779 128.648 102.983 128.561 103.172C128.473 103.36 128.349 103.53 128.195 103.67C128.042 103.811 127.862 103.92 127.667 103.991Z" fill="white"/>
<path d="M130.213 110.979L79.6916 129.391C79.2969 129.535 78.8611 129.516 78.4803 129.339C78.0995 129.161 77.8047 128.84 77.6609 128.445C77.517 128.05 77.5358 127.615 77.7132 127.234C77.8906 126.853 78.212 126.558 78.6068 126.414L129.129 108.002C129.324 107.931 129.532 107.899 129.74 107.908C129.947 107.917 130.151 107.967 130.34 108.054C130.528 108.142 130.698 108.266 130.839 108.42C130.979 108.573 131.088 108.752 131.159 108.948C131.231 109.143 131.263 109.351 131.254 109.559C131.245 109.767 131.195 109.971 131.107 110.159C131.019 110.348 130.895 110.517 130.742 110.658C130.588 110.798 130.409 110.907 130.213 110.979Z" fill="white"/>
<path d="M290.52 130.384L262.858 196.577C261.678 199.378 259.444 201.603 256.638 202.771C253.832 203.939 250.679 203.958 247.86 202.822C246.402 202.234 245.078 201.356 243.97 200.24C242.862 199.124 241.993 197.794 241.416 196.332C240.839 194.869 240.566 193.304 240.613 191.733C240.66 190.161 241.027 188.615 241.691 187.19L272.532 119.312L289.534 77.2771C288.065 75.8119 287.082 73.9299 286.72 71.8868C286.358 69.8437 286.633 67.7387 287.509 65.8576C288.385 63.9765 289.818 62.4106 291.615 61.3727C293.412 60.3348 295.484 59.8751 297.551 60.0561C299.618 60.2372 301.58 61.0501 303.168 62.3846C304.757 63.719 305.897 65.5103 306.432 67.5149C306.968 69.5196 306.873 71.6405 306.161 73.5895C305.449 75.5385 304.155 77.2211 302.453 78.4086L290.52 130.384Z" fill="#FFB6B6"/>
</g>
<defs>
<clipPath id="clip0_1_784">
<rect width="352.447" height="400" fill="white"/>
</clipPath>
</defs>
</svg>
