<svg width="571" height="400" viewBox="0 0 571 400" fill="none" xmlns="http://www.w3.org/2000/svg">
<g clip-path="url(#clip0_1_651)">
<path d="M465.937 250.859H98.5264C96.0184 250.856 93.6139 249.858 91.8404 248.085C90.0669 246.311 89.0694 243.907 89.0665 241.399V14.8459C89.0686 13.0085 89.7994 11.2469 91.0986 9.94756C92.3979 8.64827 94.1594 7.9174 95.9969 7.91528H468.347C470.216 7.91741 472.008 8.66091 473.33 9.98266C474.651 11.3044 475.395 13.0965 475.397 14.9657V241.399C475.394 243.907 474.397 246.311 472.623 248.085C470.85 249.858 468.445 250.856 465.937 250.859Z" fill="#F2F2F2"/>
<path d="M452.534 237.462H110.117C105.098 237.462 101.014 233.638 101.014 228.937V31.6523C101.014 28.1665 104.04 25.3303 107.76 25.3303H454.78C458.561 25.3303 461.637 28.2132 461.637 31.7565V228.937C461.637 233.638 457.554 237.462 452.534 237.462Z" fill="white"/>
<path d="M475.265 14.3046H88.9338V9.48846C88.9374 6.97207 89.9391 4.55986 91.719 2.78105C93.4989 1.00223 95.9117 0.00207897 98.4281 0H465.771C468.287 0.00206685 470.7 1.00222 472.48 2.78103C474.26 4.55985 475.262 6.97206 475.265 9.48846V14.3046Z" fill="#CCCCCC"/>
<path d="M106.188 9.6223C107.545 9.6223 108.644 8.5228 108.644 7.1665C108.644 5.81019 107.545 4.71069 106.188 4.71069C104.832 4.71069 103.732 5.81019 103.732 7.1665C103.732 8.5228 104.832 9.6223 106.188 9.6223Z" fill="white"/>
<path d="M115.51 9.6223C116.866 9.6223 117.966 8.5228 117.966 7.1665C117.966 5.81019 116.866 4.71069 115.51 4.71069C114.154 4.71069 113.054 5.81019 113.054 7.1665C113.054 8.5228 114.154 9.6223 115.51 9.6223Z" fill="white"/>
<path d="M124.832 9.6223C126.188 9.6223 127.287 8.5228 127.287 7.1665C127.287 5.81019 126.188 4.71069 124.832 4.71069C123.475 4.71069 122.376 5.81019 122.376 7.1665C122.376 8.5228 123.475 9.6223 124.832 9.6223Z" fill="white"/>
<path d="M414.844 204.374H149.486C146.826 204.371 144.276 203.313 142.395 201.432C140.514 199.551 139.456 197.001 139.453 194.34V66.4002C139.455 64.4107 140.246 62.5034 141.653 61.0966C143.06 59.6899 144.967 58.8985 146.957 58.8962H417.254C419.275 58.8986 421.213 59.7025 422.642 61.1318C424.071 62.561 424.875 64.4988 424.878 66.52V194.34C424.875 197.001 423.817 199.551 421.936 201.432C420.055 203.313 417.504 204.371 414.844 204.374ZM146.957 60.0429C145.271 60.0448 143.655 60.7152 142.464 61.907C141.272 63.0989 140.602 64.7147 140.6 66.4002V194.34C140.602 196.697 141.539 198.955 143.205 200.621C144.871 202.287 147.13 203.224 149.486 203.227H414.844C417.201 203.224 419.459 202.287 421.125 200.621C422.791 198.955 423.728 196.697 423.731 194.34V66.52C423.729 64.8028 423.046 63.1564 421.832 61.9422C420.618 60.7279 418.971 60.0449 417.254 60.0429H146.957Z" fill="#CCCCCC"/>
<path d="M158.659 194.34H405.671C408.104 194.34 410.437 193.374 412.158 191.654C413.878 189.933 414.844 187.6 414.844 185.167V78.214C414.844 75.7811 413.878 73.4479 412.158 71.7276C410.437 70.0072 408.104 69.0408 405.671 69.0408H158.659C156.227 69.0408 153.893 70.0072 152.173 71.7276C150.453 73.4479 149.486 75.7811 149.486 78.214V185.167C149.486 187.6 150.453 189.933 152.173 191.654C153.893 193.374 156.227 194.34 158.659 194.34Z" fill="#F2F2F2"/>
<path d="M186.706 100.158C189.556 100.158 191.866 97.8474 191.866 94.9976C191.866 92.1478 189.556 89.8376 186.706 89.8376C183.856 89.8376 181.546 92.1478 181.546 94.9976C181.546 97.8474 183.856 100.158 186.706 100.158Z" fill="#CCCCCC"/>
<path d="M186.706 119.651C189.556 119.651 191.866 117.341 191.866 114.491C191.866 111.641 189.556 109.331 186.706 109.331C183.856 109.331 181.546 111.641 181.546 114.491C181.546 117.341 183.856 119.651 186.706 119.651Z" fill="#CCCCCC"/>
<path d="M186.706 139.144C189.556 139.144 191.866 136.834 191.866 133.984C191.866 131.134 189.556 128.824 186.706 128.824C183.856 128.824 181.546 131.134 181.546 133.984C181.546 136.834 183.856 139.144 186.706 139.144Z" fill="#CCCCCC"/>
<path d="M186.706 158.637C189.556 158.637 191.866 156.327 191.866 153.477C191.866 150.627 189.556 148.317 186.706 148.317C183.856 148.317 181.546 150.627 181.546 153.477C181.546 156.327 183.856 158.637 186.706 158.637Z" fill="#CCCCCC"/>
<path d="M382.211 95.571H212.506C212.354 95.571 212.208 95.5106 212.101 95.4031C211.993 95.2955 211.933 95.1497 211.933 94.9976C211.933 94.8456 211.993 94.6998 212.101 94.5922C212.208 94.4847 212.354 94.4243 212.506 94.4243H382.211C382.363 94.4243 382.509 94.4847 382.616 94.5922C382.724 94.6998 382.784 94.8456 382.784 94.9976C382.784 95.1497 382.724 95.2955 382.616 95.4031C382.509 95.5106 382.363 95.571 382.211 95.571Z" fill="#CCCCCC"/>
<path d="M382.211 115.064H212.506C212.354 115.064 212.208 115.004 212.101 114.896C211.993 114.789 211.933 114.643 211.933 114.491C211.933 114.339 211.993 114.193 212.101 114.085C212.208 113.978 212.354 113.917 212.506 113.917H382.211C382.363 113.917 382.509 113.978 382.616 114.085C382.724 114.193 382.784 114.339 382.784 114.491C382.784 114.643 382.724 114.789 382.616 114.896C382.509 115.004 382.363 115.064 382.211 115.064Z" fill="#CCCCCC"/>
<path d="M382.211 134.557H212.506C212.354 134.557 212.208 134.497 212.101 134.389C211.993 134.282 211.933 134.136 211.933 133.984C211.933 133.832 211.993 133.686 212.101 133.579C212.208 133.471 212.354 133.411 212.506 133.411H382.211C382.363 133.411 382.509 133.471 382.616 133.579C382.724 133.686 382.784 133.832 382.784 133.984C382.784 134.136 382.724 134.282 382.616 134.389C382.509 134.497 382.363 134.557 382.211 134.557Z" fill="#CCCCCC"/>
<path d="M382.211 154.05H212.506C212.354 154.05 212.208 153.99 212.101 153.883C211.993 153.775 211.933 153.629 211.933 153.477C211.933 153.325 211.993 153.179 212.101 153.072C212.208 152.964 212.354 152.904 212.506 152.904H382.211C382.363 152.904 382.509 152.964 382.616 153.072C382.724 153.179 382.784 153.325 382.784 153.477C382.784 153.629 382.724 153.775 382.616 153.883C382.509 153.99 382.363 154.05 382.211 154.05Z" fill="#CCCCCC"/>
<path d="M244.612 173.544H227.986C227.226 173.543 226.497 173.241 225.96 172.703C225.422 172.166 225.12 171.437 225.119 170.677V155.197C225.12 154.437 225.422 153.709 225.96 153.171C226.497 152.634 227.226 152.331 227.986 152.331H244.612C245.372 152.331 246.101 152.634 246.638 153.171C247.176 153.709 247.478 154.437 247.479 155.197V170.677C247.478 171.437 247.176 172.166 246.638 172.703C246.101 173.241 245.372 173.543 244.612 173.544Z" fill="white"/>
<path d="M281.879 173.544H265.252C264.492 173.543 263.764 173.241 263.226 172.703C262.689 172.166 262.386 171.437 262.386 170.677V135.704C262.386 134.944 262.689 134.215 263.226 133.678C263.764 133.141 264.492 132.838 265.252 132.837H281.879C282.639 132.838 283.367 133.141 283.905 133.678C284.442 134.215 284.744 134.944 284.745 135.704V170.677C284.744 171.437 284.442 172.166 283.905 172.703C283.367 173.241 282.639 173.543 281.879 173.544Z" fill="white"/>
<path d="M319.718 173.544H303.092C302.332 173.543 301.603 173.241 301.066 172.703C300.528 172.166 300.226 171.437 300.225 170.677V116.211C300.226 115.451 300.528 114.722 301.066 114.185C301.603 113.647 302.332 113.345 303.092 113.344H319.718C320.478 113.345 321.207 113.647 321.744 114.185C322.282 114.722 322.584 115.451 322.585 116.211V170.677C322.584 171.437 322.282 172.166 321.744 172.703C321.207 173.241 320.478 173.543 319.718 173.544Z" fill="white"/>
<path d="M358.705 173.544H342.078C341.318 173.543 340.589 173.24 340.052 172.703C339.515 172.166 339.212 171.437 339.211 170.677V97.291C339.212 96.5309 339.515 95.8023 340.052 95.2649C340.589 94.7275 341.318 94.4252 342.078 94.4243H358.705C359.465 94.4252 360.193 94.7275 360.731 95.2649C361.268 95.8023 361.57 96.5309 361.571 97.291V170.677C361.57 171.437 361.268 172.166 360.731 172.703C360.193 173.24 359.465 173.543 358.705 173.544Z" fill="white"/>
<path d="M382.211 173.544H212.506C212.354 173.544 212.208 173.483 212.101 173.376C211.993 173.268 211.933 173.122 211.933 172.97C211.933 172.818 211.993 172.672 212.101 172.565C212.208 172.457 212.354 172.397 212.506 172.397H382.211C382.363 172.397 382.509 172.457 382.616 172.565C382.724 172.672 382.784 172.818 382.784 172.97C382.784 173.122 382.724 173.268 382.616 173.376C382.509 173.483 382.363 173.544 382.211 173.544Z" fill="#171717"/>
<path d="M456.771 280.497C457.236 279.793 457.849 279.201 458.567 278.76C459.286 278.319 460.092 278.042 460.93 277.946C461.767 277.851 462.615 277.94 463.414 278.208C464.213 278.476 464.944 278.916 465.555 279.497L483.761 270.101L482.629 280.687L465.513 287.987C464.469 288.948 463.109 289.493 461.69 289.519C460.272 289.544 458.893 289.048 457.815 288.125C456.738 287.202 456.036 285.915 455.844 284.509C455.651 283.103 455.981 281.676 456.771 280.497Z" fill="#FFB8B8"/>
<path d="M472.436 284.445C472.023 284.121 471.718 283.678 471.563 283.177L470.114 278.499C469.959 277.992 469.963 277.449 470.125 276.945C470.288 276.44 470.602 275.998 471.024 275.677L485.78 264.532L501.762 234.883C502.431 234.021 503.264 233.299 504.212 232.759C505.161 232.219 506.206 231.871 507.289 231.734C508.372 231.598 509.471 231.676 510.524 231.965C511.577 232.253 512.562 232.746 513.424 233.416C514.286 234.085 515.008 234.918 515.548 235.866C516.089 236.815 516.437 237.86 516.573 238.943C516.709 240.026 516.631 241.125 516.342 242.178C516.054 243.231 515.561 244.216 514.891 245.078L505.799 264.268C503.04 270.092 498.26 274.716 492.347 277.28L475.054 284.781C474.721 284.925 474.362 284.997 474 284.994C473.637 284.99 473.28 284.91 472.95 284.758C472.767 284.674 472.595 284.569 472.436 284.445Z" fill="#171717"/>
<path d="M515.293 222.51C523.07 222.51 529.374 216.205 529.374 208.428C529.374 200.651 523.07 194.347 515.293 194.347C507.516 194.347 501.211 200.651 501.211 208.428C501.211 216.205 507.516 222.51 515.293 222.51Z" fill="#FFB8B8"/>
<path d="M509.581 393.152L502.552 393.152L499.209 366.04L509.584 366.041L509.581 393.152Z" fill="#FFB8B8"/>
<path d="M497.531 391.143H511.087V399.678H488.996C488.996 398.557 489.217 397.447 489.646 396.412C490.075 395.376 490.703 394.435 491.496 393.643C492.289 392.85 493.229 392.222 494.265 391.793C495.301 391.364 496.41 391.143 497.531 391.143Z" fill="#171717"/>
<path d="M532.514 393.153L525.485 393.153L522.142 366.041L532.517 366.042L532.514 393.153Z" fill="#FFB8B8"/>
<path d="M520.464 391.144H534.02V399.679H511.929C511.929 398.558 512.15 397.448 512.579 396.413C513.008 395.377 513.637 394.436 514.429 393.644C515.222 392.851 516.163 392.223 517.198 391.794C518.234 391.365 519.344 391.144 520.464 391.144Z" fill="#171717"/>
<path d="M533.028 386.274L524.791 386.273C524.223 386.273 523.672 386.085 523.222 385.74C522.772 385.395 522.448 384.912 522.3 384.365L510.444 340.39C510.425 340.321 510.382 340.262 510.322 340.223C510.262 340.185 510.191 340.17 510.121 340.181C510.051 340.193 509.987 340.23 509.943 340.285C509.899 340.341 509.876 340.411 509.881 340.481L512.276 382.187C512.297 382.555 512.238 382.924 512.105 383.269C511.971 383.613 511.765 383.925 511.5 384.182C511.236 384.44 510.919 384.638 510.571 384.763C510.224 384.888 509.853 384.936 509.485 384.905L500.227 384.133C499.634 384.083 499.077 383.829 498.649 383.415C498.221 383.001 497.949 382.452 497.879 381.861L489.445 294.288L492.708 296.246L523.283 291.055L535.585 383.353C535.634 383.717 535.604 384.088 535.497 384.44C535.391 384.792 535.211 385.117 534.969 385.393C534.727 385.67 534.428 385.891 534.093 386.043C533.759 386.195 533.395 386.274 533.028 386.274Z" fill="#171717"/>
<path d="M499.671 303.531C496.297 303.504 492.993 302.574 490.101 300.837C489.655 300.573 489.3 300.181 489.081 299.711C488.863 299.242 488.791 298.717 488.876 298.206C489.951 291.621 495.575 257.84 500.691 239.423C502.775 231.923 507.383 227.883 514.386 227.416C524.63 226.744 533.736 234.759 534.684 245.304C536.357 263.907 529.562 290.339 526.564 300.84C526.447 301.245 526.233 301.616 525.94 301.919C525.647 302.223 525.284 302.45 524.883 302.581C524.482 302.711 524.055 302.741 523.64 302.668C523.224 302.595 522.833 302.421 522.5 302.162L516.388 297.407C516.011 297.12 515.546 296.973 515.073 296.993C514.6 297.012 514.149 297.197 513.798 297.515C508.646 302.11 503.752 303.531 499.671 303.531Z" fill="#171717"/>
<path opacity="0.2" d="M519.886 254.407L525.046 276.195L517.591 294.54L522.752 276.768L519.886 254.407Z" fill="black"/>
<path d="M523.328 220.008C524.581 220.031 525.825 219.806 526.99 219.346C527.503 219.148 528.035 218.986 528.547 218.788C533.066 217.042 536.043 212.23 536.15 207.387C536.256 202.544 533.748 197.843 530.024 194.745C526.3 191.647 521.476 190.056 516.646 189.688C511.443 189.292 505.584 190.611 502.676 194.944C501.902 196.097 501.361 197.497 501.82 198.889C501.957 199.31 502.202 199.686 502.531 199.982C503.829 201.137 505.124 200.269 506.447 200.192C508.267 200.087 509.901 201.559 510.488 203.285C511.075 205.01 510.817 206.909 510.342 208.668C509.981 209.727 509.753 210.827 509.664 211.942C509.626 212.501 509.731 213.061 509.97 213.568C510.208 214.075 510.572 214.513 511.028 214.84C512.165 215.528 513.658 215.13 514.795 214.444C515.933 213.758 516.916 212.804 518.144 212.299C519.373 211.794 521.024 211.906 521.739 213.026C521.966 213.433 522.12 213.877 522.193 214.338C522.834 217.259 522.687 217.087 523.328 220.008Z" fill="#171717"/>
<path d="M501.502 373.484L413.327 342.776C411.814 342.247 410.572 341.14 409.875 339.697C409.177 338.254 409.08 336.593 409.606 335.079L432.519 269.284C432.907 268.176 433.718 267.267 434.775 266.755C435.832 266.244 437.049 266.174 438.158 266.558L529.315 298.304C530.442 298.699 531.368 299.524 531.887 300.599C532.407 301.675 532.479 302.913 532.088 304.041L509.199 369.763C508.671 371.276 507.563 372.518 506.12 373.215C504.677 373.913 503.016 374.009 501.502 373.484Z" fill="#E6E6E6"/>
<path d="M420.851 338.995L497.954 365.847C499.423 366.358 501.034 366.265 502.434 365.589C503.833 364.912 504.907 363.707 505.418 362.239L523.921 309.11C524.432 307.642 524.339 306.031 523.663 304.631C522.986 303.231 521.781 302.158 520.313 301.646L443.209 274.794C441.741 274.283 440.13 274.376 438.73 275.053C437.33 275.729 436.257 276.934 435.745 278.402L417.243 331.531C416.99 332.258 416.882 333.028 416.926 333.796C416.971 334.565 417.166 335.317 417.501 336.01C417.836 336.703 418.304 337.324 418.879 337.836C419.454 338.348 420.124 338.742 420.851 338.995Z" fill="white"/>
<path d="M440.213 301.668L436.394 300.338C436.187 300.265 436.017 300.114 435.922 299.917C435.826 299.719 435.813 299.492 435.885 299.285L437.215 295.466C437.287 295.259 437.439 295.089 437.636 294.994C437.834 294.898 438.061 294.885 438.268 294.957L442.086 296.287C442.293 296.359 442.463 296.511 442.559 296.708C442.654 296.906 442.667 297.133 442.595 297.34L441.266 301.159C441.193 301.366 441.042 301.535 440.844 301.631C440.647 301.726 440.42 301.74 440.213 301.668Z" fill="white"/>
<path d="M436.767 311.561L432.949 310.231C432.742 310.159 432.572 310.007 432.476 309.81C432.381 309.612 432.368 309.385 432.44 309.178L433.769 305.359C433.842 305.152 433.993 304.983 434.191 304.887C434.388 304.792 434.615 304.779 434.822 304.85L438.641 306.18C438.848 306.253 439.018 306.404 439.113 306.602C439.209 306.799 439.222 307.026 439.15 307.233L437.82 311.052C437.748 311.259 437.596 311.429 437.399 311.524C437.201 311.62 436.974 311.633 436.767 311.561Z" fill="#171717"/>
<path d="M433.322 321.454L429.503 320.125C429.296 320.052 429.126 319.901 429.031 319.703C428.935 319.506 428.922 319.279 428.994 319.072L430.324 315.253C430.396 315.046 430.548 314.876 430.745 314.781C430.943 314.685 431.17 314.672 431.377 314.744L435.196 316.074C435.403 316.146 435.572 316.298 435.668 316.495C435.763 316.693 435.776 316.92 435.705 317.127L434.375 320.945C434.302 321.152 434.151 321.322 433.953 321.418C433.756 321.513 433.529 321.526 433.322 321.454Z" fill="#CCCCCC"/>
<path d="M465.871 308.463L447.473 302.055C447.37 302.02 447.276 301.964 447.194 301.892C447.113 301.82 447.046 301.732 446.999 301.634C446.951 301.536 446.924 301.43 446.917 301.322C446.911 301.213 446.926 301.104 446.962 301.001C446.998 300.899 447.054 300.804 447.126 300.723C447.198 300.642 447.286 300.575 447.384 300.528C447.482 300.481 447.589 300.454 447.697 300.448C447.806 300.442 447.915 300.457 448.017 300.493L466.415 306.9C466.518 306.936 466.613 306.991 466.695 307.064C466.776 307.136 466.842 307.223 466.89 307.321C466.937 307.419 466.965 307.525 466.971 307.634C466.978 307.743 466.962 307.851 466.927 307.954C466.891 308.057 466.835 308.152 466.763 308.233C466.69 308.314 466.603 308.38 466.505 308.427C466.407 308.475 466.3 308.502 466.192 308.508C466.083 308.514 465.974 308.499 465.871 308.463Z" fill="#CCCCCC"/>
<path d="M462.426 318.356L444.028 311.949C443.821 311.877 443.651 311.725 443.555 311.528C443.46 311.33 443.446 311.103 443.519 310.896C443.591 310.688 443.742 310.518 443.94 310.423C444.137 310.328 444.365 310.314 444.572 310.387L462.97 316.794C463.073 316.83 463.168 316.885 463.249 316.957C463.33 317.029 463.397 317.117 463.444 317.215C463.491 317.313 463.519 317.419 463.525 317.528C463.532 317.636 463.517 317.745 463.481 317.848C463.445 317.95 463.389 318.045 463.317 318.126C463.244 318.207 463.157 318.273 463.059 318.321C462.961 318.368 462.855 318.395 462.746 318.401C462.637 318.407 462.529 318.392 462.426 318.356Z" fill="#CCCCCC"/>
<path d="M458.981 328.25L440.582 321.842C440.375 321.77 440.205 321.619 440.11 321.421C440.014 321.224 440.001 320.996 440.073 320.789C440.145 320.582 440.297 320.412 440.494 320.317C440.692 320.221 440.919 320.208 441.126 320.28L459.525 326.688C459.732 326.76 459.902 326.911 459.997 327.109C460.093 327.306 460.106 327.533 460.034 327.741C459.961 327.948 459.81 328.118 459.612 328.213C459.415 328.309 459.188 328.322 458.981 328.25Z" fill="#CCCCCC"/>
<path d="M507.942 333.61C508.076 333.288 508.202 332.962 508.318 332.628C509.83 328.286 509.556 323.521 507.555 319.382C505.554 315.242 501.99 312.067 497.648 310.554L491.601 327.919L507.942 333.61Z" fill="white"/>
<path d="M489.842 328.975L495.889 311.611C492.693 310.498 489.242 310.344 485.96 311.169C482.678 311.994 479.709 313.762 477.42 316.254C475.13 318.746 473.62 321.854 473.076 325.194C472.532 328.534 472.977 331.961 474.356 335.051C475.736 338.141 477.99 340.76 480.84 342.584C483.691 344.409 487.012 345.359 490.396 345.318C493.78 345.277 497.078 344.247 499.883 342.354C502.689 340.461 504.879 337.789 506.183 334.666L489.842 328.975Z" fill="#171717"/>
<path d="M511.492 304.066C511.423 303.226 511.54 302.381 511.833 301.591C512.127 300.801 512.59 300.085 513.19 299.493C513.79 298.901 514.513 298.448 515.307 298.166C516.101 297.884 516.947 297.779 517.786 297.859L526.314 279.23L531.956 288.259L522.993 304.565C522.765 305.966 522.031 307.234 520.93 308.129C519.829 309.025 518.438 309.486 517.021 309.424C515.603 309.363 514.257 308.783 513.238 307.796C512.219 306.808 511.598 305.481 511.492 304.066Z" fill="#FFB8B8"/>
<path d="M526.254 297.505C525.729 297.506 525.217 297.346 524.785 297.047L520.758 294.259C520.323 293.957 519.991 293.528 519.808 293.03C519.625 292.533 519.598 291.991 519.733 291.478L524.466 273.601L518.745 240.41C518.738 239.317 518.947 238.235 519.359 237.223C519.771 236.212 520.379 235.291 521.147 234.515C521.915 233.738 522.829 233.121 523.836 232.697C524.843 232.274 525.923 232.054 527.016 232.048C528.108 232.043 529.19 232.253 530.202 232.667C531.213 233.08 532.132 233.689 532.908 234.458C533.683 235.227 534.3 236.141 534.722 237.149C535.144 238.156 535.363 239.237 535.367 240.329L540.055 261.04C541.479 267.325 540.571 273.914 537.5 279.581L528.522 296.155C528.349 296.473 528.111 296.752 527.823 296.972C527.536 297.193 527.205 297.351 526.853 297.435C526.657 297.482 526.456 297.506 526.254 297.505Z" fill="#171717"/>
<path d="M569.888 400H460.956C460.804 400 460.658 399.94 460.55 399.832C460.443 399.724 460.382 399.579 460.382 399.427C460.382 399.275 460.443 399.129 460.55 399.021C460.658 398.914 460.804 398.853 460.956 398.853H569.888C570.04 398.853 570.186 398.914 570.293 399.021C570.401 399.129 570.461 399.275 570.461 399.427C570.461 399.579 570.401 399.724 570.293 399.832C570.186 399.94 570.04 400 569.888 400Z" fill="#CCCCCC"/>
<path d="M281.241 392.867L288.27 392.866L291.613 365.755H281.24L281.241 392.867Z" fill="#A0616A"/>
<path d="M279.448 390.572L293.29 390.571C294.449 390.571 295.596 390.799 296.667 391.243C297.737 391.686 298.71 392.336 299.529 393.155C300.348 393.974 300.998 394.947 301.441 396.017C301.884 397.087 302.112 398.234 302.112 399.393V399.679L279.448 399.68L279.448 390.572Z" fill="#171717"/>
<path d="M253.148 392.867L260.177 392.866L263.52 365.755H253.147L253.148 392.867Z" fill="#A0616A"/>
<path d="M251.355 390.572L265.197 390.571C266.356 390.571 267.503 390.799 268.574 391.243C269.644 391.686 270.616 392.336 271.436 393.155C272.255 393.974 272.905 394.947 273.348 396.017C273.791 397.087 274.019 398.234 274.019 399.393V399.679L251.355 399.68L251.355 390.572Z" fill="#171717"/>
<path d="M282.644 205.17C290.421 205.17 296.725 198.865 296.725 191.088C296.725 183.311 290.421 177.007 282.644 177.007C274.867 177.007 268.562 183.311 268.562 191.088C268.562 198.865 274.867 205.17 282.644 205.17Z" fill="#A0616A"/>
<path d="M292.113 387.015H279.07C278.728 387.015 278.39 386.947 278.075 386.816C277.76 386.684 277.474 386.491 277.234 386.248C276.994 386.005 276.805 385.717 276.677 385.401C276.549 385.084 276.486 384.745 276.49 384.404L277.248 322.466C277.251 322.246 277.169 322.034 277.02 321.872C276.87 321.711 276.665 321.612 276.445 321.598C276.226 321.583 276.009 321.653 275.839 321.793C275.67 321.933 275.561 322.133 275.534 322.352L267.943 384.747C267.866 385.372 267.563 385.948 267.092 386.366C266.62 386.784 266.012 387.015 265.382 387.015H252.213C251.857 387.015 251.505 386.942 251.179 386.799C250.853 386.657 250.56 386.448 250.319 386.187C250.077 385.926 249.892 385.618 249.776 385.281C249.659 384.945 249.613 384.589 249.641 384.234L258.337 272.965L258.573 272.94L300.213 268.443L294.69 384.558C294.66 385.22 294.375 385.845 293.894 386.303C293.414 386.761 292.776 387.016 292.113 387.015Z" fill="#171717"/>
<path d="M258.844 279.796C258.175 279.795 257.532 279.533 257.053 279.067C256.573 278.601 256.293 277.966 256.273 277.297C256.046 270.262 255.656 245.918 260.184 228.046C261.42 223.163 264.194 218.808 268.096 215.624C271.998 212.44 276.821 210.596 281.852 210.365C286.804 210.094 291.715 211.39 295.889 214.068C300.063 216.746 303.287 220.671 305.105 225.285C312.716 244.608 319.907 268.425 310.942 272.161C299.192 277.057 268.216 279.239 259.002 279.791C258.949 279.795 258.896 279.796 258.844 279.796Z" fill="#171717"/>
<path d="M312.663 176.856C312.884 177.084 313.123 177.293 313.377 177.483L311.899 205.878L305.75 209.026L309.288 218.926L320.714 214.411C321.637 214.046 322.417 213.392 322.937 212.546C323.456 211.7 323.688 210.709 323.596 209.721L320.602 177.511C321.582 176.781 322.316 175.769 322.706 174.611C323.097 173.453 323.125 172.203 322.788 171.028C322.451 169.854 321.765 168.809 320.82 168.034C319.875 167.259 318.716 166.79 317.498 166.69C316.28 166.589 315.061 166.862 314.001 167.472C312.942 168.081 312.094 168.999 311.569 170.103C311.044 171.206 310.867 172.444 311.063 173.65C311.258 174.856 311.816 175.975 312.663 176.856Z" fill="#A0616A"/>
<path d="M312.015 206.934L316.341 219.226C316.464 219.576 316.51 219.948 316.476 220.317C316.443 220.686 316.33 221.044 316.145 221.366C315.961 221.687 315.709 221.965 315.408 222.181C315.106 222.397 314.762 222.545 314.398 222.615L301.644 225.085C299.851 225.705 297.885 225.588 296.178 224.761C294.471 223.933 293.162 222.463 292.537 220.672C291.913 218.88 292.024 216.915 292.847 215.205C293.67 213.496 295.137 212.183 296.927 211.554L308.378 205.509C308.706 205.336 309.067 205.236 309.438 205.215C309.808 205.194 310.178 205.254 310.523 205.389C310.868 205.524 311.18 205.732 311.438 205.999C311.695 206.266 311.892 206.585 312.015 206.934Z" fill="#171717"/>
<path d="M251.668 176.856C251.447 177.084 251.208 177.293 250.954 177.483L252.432 205.878L258.58 209.026L255.043 218.926L243.616 214.411C242.693 214.046 241.913 213.392 241.394 212.546C240.874 211.7 240.643 210.709 240.735 209.721L243.728 177.511C242.749 176.781 242.015 175.769 241.624 174.611C241.234 173.453 241.205 172.203 241.542 171.028C241.879 169.854 242.566 168.809 243.511 168.034C244.456 167.259 245.614 166.79 246.832 166.69C248.05 166.589 249.27 166.862 250.329 167.472C251.389 168.081 252.237 168.999 252.762 170.103C253.287 171.206 253.464 172.444 253.268 173.65C253.073 174.856 252.515 175.975 251.668 176.856Z" fill="#A0616A"/>
<path d="M253.808 205.389C254.153 205.253 254.523 205.194 254.893 205.215C255.263 205.235 255.625 205.336 255.953 205.509L267.404 211.554C269.194 212.183 270.661 213.496 271.484 215.205C272.306 216.915 272.418 218.88 271.793 220.672C271.169 222.463 269.86 223.933 268.153 224.761C266.445 225.588 264.48 225.705 262.687 225.085L249.933 222.615C249.569 222.545 249.225 222.397 248.923 222.181C248.621 221.965 248.37 221.687 248.185 221.366C248.001 221.044 247.888 220.686 247.854 220.317C247.821 219.948 247.867 219.576 247.99 219.226L252.315 206.935C252.438 206.585 252.635 206.265 252.893 205.999C253.15 205.732 253.462 205.524 253.808 205.389Z" fill="#171717"/>
<path d="M288.113 193.489C288.039 191.693 288.49 189.914 289.41 188.369C290.331 186.825 291.681 185.582 293.296 184.793C297.577 182.583 300.266 177.87 299.087 173.566C297.579 168.057 290.081 164.484 284.006 166.379C282.362 166.963 280.776 167.7 279.27 168.581L275.3 170.708C273.605 171.557 271.97 172.522 270.408 173.596C268.067 175.321 266.233 177.642 265.097 180.318C263.96 182.994 263.563 185.925 263.946 188.807C264.728 194.408 268.395 199.544 273.416 203.06C275.336 204.495 277.554 205.481 279.905 205.945C282.312 206.342 284.991 205.891 286.751 204.394C289.5 202.055 289.216 198.139 288.327 194.867C288.21 194.416 288.138 193.954 288.113 193.489Z" fill="#171717"/>
<path d="M335.97 400H227.038C226.886 400 226.74 399.94 226.632 399.832C226.525 399.724 226.464 399.579 226.464 399.427C226.464 399.275 226.525 399.129 226.632 399.021C226.74 398.914 226.886 398.853 227.038 398.853H335.97C336.122 398.853 336.268 398.914 336.376 399.021C336.483 399.129 336.543 399.275 336.543 399.427C336.543 399.579 336.483 399.724 336.376 399.832C336.268 399.94 336.122 400 335.97 400Z" fill="#CCCCCC"/>
<path d="M158.187 295.409L68.302 332.284C66.7583 332.915 65.0273 332.909 63.4887 332.265C61.95 331.622 60.7294 330.394 60.0947 328.852L32.5796 261.782C32.1171 260.651 32.1221 259.383 32.5935 258.256C33.0649 257.129 33.9641 256.235 35.094 255.77L128.017 217.648C129.168 217.178 130.458 217.183 131.605 217.662C132.751 218.142 133.661 219.057 134.134 220.206L161.619 287.202C162.25 288.746 162.243 290.477 161.6 292.015C160.956 293.554 159.729 294.775 158.187 295.409Z" fill="#E6E6E6"/>
<path d="M71.5579 324.149L150.156 291.905C151.653 291.291 152.844 290.107 153.468 288.615C154.092 287.122 154.098 285.443 153.484 283.946L131.266 229.788C130.962 229.047 130.515 228.373 129.95 227.804C129.386 227.236 128.715 226.784 127.976 226.475C127.237 226.166 126.444 226.006 125.643 226.003C124.842 226 124.048 226.156 123.307 226.46L44.7093 258.704C43.9682 259.008 43.2942 259.455 42.7259 260.02C42.1575 260.584 41.7059 261.255 41.3969 261.994C41.0878 262.733 40.9274 263.526 40.9247 264.327C40.9219 265.128 41.077 265.922 41.3811 266.663L63.5993 320.821C63.9033 321.562 64.3504 322.236 64.9149 322.804C65.4794 323.373 66.1503 323.824 66.8893 324.133C67.6283 324.442 68.421 324.603 69.222 324.606C70.0231 324.608 70.8168 324.453 71.5579 324.149Z" fill="white"/>
<path d="M130.831 244.558L129.676 245.032L129.755 245.224L130.91 244.75L130.831 244.558Z" fill="#E6E6E6"/>
<path d="M127.42 246.182L125.086 247.14L125.007 246.947L127.341 245.989L127.42 246.182ZM122.752 248.097L120.417 249.055L120.338 248.862L122.673 247.905L122.752 248.097ZM118.083 250.013L115.748 250.97L115.669 250.778L118.004 249.82L118.083 250.013ZM113.414 251.928L111.079 252.886L111 252.693L113.335 251.735L113.414 251.928ZM108.745 253.843L106.41 254.801L106.331 254.609L108.666 253.651L108.745 253.843ZM104.076 255.759L101.742 256.717L101.663 256.524L103.997 255.566L104.076 255.759ZM99.407 257.674L97.0726 258.632L96.9936 258.439L99.3281 257.482L99.407 257.674ZM94.7382 259.59L92.4037 260.547L92.3247 260.355L94.6591 259.397L94.7382 259.59ZM90.0692 261.505L87.7348 262.463L87.6558 262.27L89.9902 261.313L90.0692 261.505ZM85.4004 263.421L83.0659 264.378L82.9869 264.186L85.3213 263.228L85.4004 263.421ZM80.7314 265.336L78.397 266.294L78.318 266.101L80.6524 265.143L80.7314 265.336ZM76.0625 267.251L73.7281 268.209L73.6491 268.016L75.9835 267.059L76.0625 267.251ZM71.3936 269.167L69.0592 270.124L68.9802 269.932L71.3146 268.974L71.3936 269.167ZM66.7247 271.082L64.3903 272.04L64.3113 271.847L66.6457 270.89L66.7247 271.082ZM62.0558 272.998L59.7214 273.955L59.6424 273.763L61.9768 272.805L62.0558 272.998ZM57.3869 274.913L55.0525 275.871L54.9734 275.678L57.3079 274.72L57.3869 274.913Z" fill="#E6E6E6"/>
<path d="M52.639 276.636L51.4835 277.11L51.5625 277.302L52.718 276.828L52.639 276.636Z" fill="#E6E6E6"/>
<path d="M100.239 278.034L99.0832 278.508L99.1622 278.7L100.318 278.226L100.239 278.034Z" fill="#E6E6E6"/>
<path d="M96.8624 279.644L94.5626 280.587L94.4836 280.395L96.7834 279.451L96.8624 279.644ZM92.2629 281.531L89.9631 282.474L89.8841 282.282L92.1838 281.338L92.2629 281.531ZM87.6633 283.418L85.3635 284.361L85.2845 284.169L87.5843 283.225L87.6633 283.418ZM83.0638 285.305L80.764 286.248L80.685 286.056L82.9847 285.112L83.0638 285.305ZM78.4642 287.192L76.1644 288.135L76.0854 287.943L78.3852 286.999L78.4642 287.192ZM73.8646 289.079L71.5648 290.022L71.4858 289.829L73.7856 288.886L73.8646 289.079ZM69.2651 290.966L66.9653 291.909L66.8863 291.716L69.1861 290.773L69.2651 290.966ZM64.6655 292.853L62.3658 293.796L62.2867 293.603L64.5865 292.66L64.6655 292.853Z" fill="#E6E6E6"/>
<path d="M59.987 294.547L58.8314 295.021L58.9104 295.214L60.066 294.74L59.987 294.547Z" fill="#E6E6E6"/>
<path d="M81.1819 295.752L80.0264 296.226L80.1054 296.419L81.2609 295.945L81.1819 295.752Z" fill="#E6E6E6"/>
<path d="M77.7393 297.389L75.3731 298.36L75.2941 298.167L77.6602 297.197L77.7393 297.389ZM73.007 299.331L70.6409 300.301L70.5618 300.109L72.928 299.138L73.007 299.331ZM68.2747 301.272L65.9086 302.243L65.8296 302.05L68.1957 301.08L68.2747 301.272Z" fill="#E6E6E6"/>
<path d="M63.4635 303.021L62.3079 303.495L62.3869 303.688L63.5425 303.214L63.4635 303.021Z" fill="#E6E6E6"/>
<path d="M87.1146 310.213L85.959 310.687L86.0381 310.88L87.1936 310.406L87.1146 310.213Z" fill="#E6E6E6"/>
<path d="M83.672 311.851L81.3059 312.821L81.2269 312.629L83.593 311.658L83.672 311.851ZM78.9397 313.792L76.5736 314.763L76.4946 314.57L78.8607 313.599L78.9397 313.792ZM74.2075 315.733L71.8413 316.704L71.7623 316.511L74.1285 315.541L74.2075 315.733Z" fill="#E6E6E6"/>
<path d="M69.3961 317.482L68.2406 317.956L68.3196 318.149L69.4752 317.675L69.3961 317.482Z" fill="#E6E6E6"/>
<path d="M74.8952 315.624L141.502 288.299C143.114 287.635 144.397 286.36 145.069 284.751C145.742 283.143 145.749 281.334 145.089 279.72L131.631 246.917L131.501 246.975L115.156 286.057L103.033 280.989C102.81 280.894 102.567 280.853 102.325 280.868C102.083 280.883 101.847 280.954 101.637 281.076C101.321 281.266 101.077 281.555 100.942 281.897L92.3759 302.378L83.5123 298.672C83.3211 298.592 83.1159 298.551 82.9086 298.55C82.7013 298.549 82.4958 298.589 82.304 298.668C82.1122 298.747 81.9378 298.863 81.7907 299.009C81.6436 299.155 81.5268 299.329 81.4468 299.52C81.3901 299.659 75.9249 313.068 74.8952 315.624Z" fill="white"/>
<path d="M74.6902 315.933L74.4982 315.852L81.3521 299.463C81.5335 299.03 81.8792 298.687 82.3132 298.509C82.7472 298.331 83.2341 298.333 83.6671 298.513L92.3556 302.147L100.873 281.779C101.055 281.347 101.4 281.004 101.834 280.826C102.268 280.648 102.755 280.649 103.188 280.829L115.136 285.826L131.565 246.54L131.757 246.62L115.248 286.098L103.108 281.022C102.919 280.942 102.716 280.901 102.511 280.901C102.306 280.9 102.103 280.94 101.913 281.017C101.723 281.095 101.551 281.21 101.405 281.354C101.26 281.499 101.144 281.67 101.065 281.86L92.4673 302.419L83.5868 298.705C83.2048 298.546 82.7751 298.545 82.3922 298.702C82.0093 298.859 81.7043 299.162 81.5441 299.543L74.6902 315.933Z" fill="#171717"/>
<path d="M81.2215 297.305C82.0262 297.305 82.6786 296.653 82.6786 295.848C82.6786 295.044 82.0262 294.391 81.2215 294.391C80.4167 294.391 79.7643 295.044 79.7643 295.848C79.7643 296.653 80.4167 297.305 81.2215 297.305Z" fill="#171717"/>
<path d="M100.278 279.587C101.083 279.587 101.735 278.935 101.735 278.13C101.735 277.325 101.083 276.673 100.278 276.673C99.4735 276.673 98.8211 277.325 98.8211 278.13C98.8211 278.935 99.4735 279.587 100.278 279.587Z" fill="#171717"/>
<path d="M129.952 246.06C130.757 246.06 131.409 245.407 131.409 244.602C131.409 243.798 130.757 243.145 129.952 243.145C129.147 243.145 128.495 243.798 128.495 244.602C128.495 245.407 129.147 246.06 129.952 246.06Z" fill="#171717"/>
<path d="M48.3895 294.195C49.147 293.818 49.8127 293.279 50.3396 292.617C50.8665 291.955 51.2418 291.186 51.4391 290.363C51.6364 289.54 51.651 288.684 51.4817 287.855C51.3124 287.026 50.9633 286.244 50.4592 285.565L54.787 243.251H45.4341L41.9947 284.568C40.9093 285.491 40.2 286.78 40.0012 288.19C39.8024 289.601 40.128 291.035 40.9163 292.222C41.7045 293.409 42.9007 294.265 44.278 294.628C45.6554 294.992 47.1183 294.838 48.3895 294.195Z" fill="#FFB8B8"/>
<path d="M56.9771 219.898C64.2852 219.898 70.2096 213.974 70.2096 206.666C70.2096 199.358 64.2852 193.434 56.9771 193.434C49.6691 193.434 43.7447 199.358 43.7447 206.666C43.7447 213.974 49.6691 219.898 56.9771 219.898Z" fill="#FFB8B8"/>
<path d="M59.4683 267.893C58.9386 267.893 58.4236 267.719 58.0023 267.398C57.581 267.077 57.2766 266.626 57.1359 266.116C56.0758 262.264 53.3176 255.752 48.938 246.758C47.9498 244.726 47.4026 242.507 47.3323 240.247C47.262 237.988 47.6701 235.74 48.5299 233.649C49.3897 231.559 50.6818 229.674 52.3214 228.118C53.9609 226.562 55.911 225.37 58.0435 224.621C60.0644 223.907 62.2079 223.606 64.3472 223.736C66.4865 223.865 68.5781 224.422 70.4983 225.374C72.4185 226.326 74.1283 227.653 75.5265 229.278C76.9247 230.902 77.9829 232.79 78.6385 234.831C82.0331 245.473 81.8692 256.873 81.6411 261.28C81.6128 261.811 81.4113 262.318 81.0674 262.723C80.7235 263.128 80.2563 263.41 79.7372 263.524L59.9882 267.837C59.8175 267.874 59.6431 267.893 59.4683 267.893Z" fill="#FF6584"/>
<path d="M78.5929 393.547H85.1977L88.3401 368.07L78.5918 368.07L78.5929 393.547Z" fill="#FFB8B8"/>
<path d="M97.9364 399.679L77.1777 399.68L77.1773 391.66L89.9156 391.659C90.9689 391.659 92.0118 391.867 92.9849 392.27C93.958 392.673 94.8422 393.263 95.587 394.008C96.3318 394.753 96.9226 395.637 97.3257 396.61C97.7289 397.583 97.9364 398.626 97.9364 399.679Z" fill="#171717"/>
<path d="M12.5455 384.987L18.3339 388.169L33.3619 367.358L24.8199 362.661L12.5455 384.987Z" fill="#FFB8B8"/>
<path d="M26.5416 399.68L8.35078 389.679L12.2148 382.651L23.3773 388.788C25.2413 389.813 26.6219 391.536 27.2153 393.579C27.8088 395.621 27.5664 397.816 26.5416 399.68Z" fill="#171717"/>
<path d="M78.2843 379.406C77.6957 379.406 77.1274 379.191 76.6854 378.802C76.2435 378.414 75.958 377.877 75.8823 377.294L67.622 313.64C67.5854 313.359 67.4609 313.096 67.2661 312.889C67.0713 312.683 66.8162 312.543 66.5373 312.49C66.2584 312.437 65.9698 312.474 65.7129 312.595C65.456 312.715 65.2439 312.914 65.1068 313.163L30.6809 375.622C30.3968 376.132 29.9392 376.523 29.3912 376.724C28.8432 376.925 28.2412 376.923 27.6947 376.718L20.1909 373.859C19.8891 373.744 19.6133 373.569 19.3797 373.346C19.1461 373.123 18.9594 372.856 18.8306 372.56C18.7019 372.264 18.6336 371.945 18.6297 371.622C18.6259 371.299 18.6867 370.978 18.8085 370.679L42.6562 312.096C42.7165 311.947 42.7575 311.791 42.778 311.632C46.008 286.632 54.2263 273.918 56.6681 270.618C56.8464 270.375 56.9638 270.093 57.0103 269.795C57.0568 269.498 57.031 269.194 56.9352 268.908L56.5996 267.901C56.4655 267.501 56.438 267.074 56.5198 266.66C56.6016 266.247 56.7899 265.862 57.0661 265.543C65.8647 255.521 81.2004 260.99 81.3543 261.046L81.4311 261.075L81.4792 261.14C98.675 284.723 92.3171 361.319 90.8681 376.434C90.814 377.003 90.5607 377.533 90.1531 377.932C89.7455 378.332 89.2098 378.574 88.6408 378.616L78.4726 379.399C78.4093 379.404 78.3466 379.406 78.2843 379.406Z" fill="#171717"/>
<path d="M108.42 222.037C108.354 222.328 108.311 222.623 108.291 222.921L85.1473 236.272L79.5219 233.034L73.5249 240.885L82.9264 247.586C83.6859 248.127 84.6006 248.407 85.533 248.384C86.4654 248.362 87.3653 248.037 88.0975 247.46L111.963 228.632C113.04 229.031 114.213 229.092 115.325 228.808C116.438 228.524 117.438 227.908 118.192 227.041C118.946 226.175 119.418 225.1 119.546 223.958C119.674 222.817 119.451 221.664 118.908 220.652C118.364 219.641 117.526 218.818 116.504 218.295C115.481 217.771 114.324 217.571 113.186 217.722C112.047 217.872 110.981 218.366 110.13 219.136C109.279 219.907 108.682 220.919 108.42 222.037Z" fill="#FFB8B8"/>
<path d="M84.3735 236.904L76.8936 246.599C76.6808 246.875 76.411 247.101 76.1026 247.264C75.7943 247.426 75.4546 247.52 75.1067 247.539C74.7588 247.558 74.411 247.502 74.0867 247.374C73.7625 247.246 73.4696 247.051 73.2279 246.8L64.7601 238.006C63.355 236.91 62.4423 235.3 62.2219 233.531C62.0016 231.763 62.4917 229.979 63.5847 228.57C64.6777 227.162 66.2845 226.245 68.0528 226.02C69.821 225.795 71.6064 226.28 73.0174 227.369L83.6379 233.308C83.942 233.478 84.2058 233.712 84.4113 233.993C84.6169 234.274 84.7595 234.596 84.8293 234.938C84.8991 235.279 84.8945 235.631 84.8159 235.971C84.7372 236.31 84.5864 236.629 84.3735 236.904Z" fill="#FF6584"/>
<path d="M55.3822 253.747L43.3325 251.571C42.9896 251.51 42.6641 251.374 42.3782 251.175C42.0923 250.976 41.8526 250.718 41.6755 250.418C41.4984 250.118 41.388 249.783 41.3519 249.437C41.3158 249.09 41.3548 248.74 41.4663 248.41L45.3726 236.844C45.6992 235.092 46.7074 233.54 48.1761 232.53C49.6449 231.52 51.4542 231.134 53.2075 231.455C54.9608 231.777 56.5149 232.781 57.529 234.247C58.5432 235.713 58.9345 237.522 58.6173 239.276L58.2362 251.438C58.2252 251.786 58.1392 252.128 57.9842 252.44C57.8292 252.752 57.6088 253.027 57.338 253.246C57.0671 253.465 56.7522 253.623 56.4147 253.71C56.0772 253.796 55.7251 253.809 55.3822 253.747Z" fill="#FF6584"/>
<path d="M59.0715 203.623C62.4725 205.95 66.9381 208.343 70.4118 205.864C71.4983 205.037 72.2877 203.88 72.6616 202.566C73.0356 201.253 72.9741 199.853 72.4863 198.578C70.823 193.821 66.2532 191.727 61.8833 190.122C56.2024 188.035 50.0168 186.375 44.1522 187.87C38.2876 189.364 33.1046 195.042 34.1633 201.001C35.0146 205.793 39.5347 209.78 38.893 214.604C38.2472 219.46 32.7869 222.015 27.9662 222.883C23.1456 223.751 17.7512 224.03 14.2868 227.492C9.86728 231.909 10.9709 239.805 15.1294 244.468C19.288 249.132 25.5635 251.246 31.6444 252.683C39.7013 254.587 48.4154 255.588 56.0674 252.428C63.7194 249.268 69.6741 240.761 67.4574 232.785C66.5211 229.415 64.3155 226.568 62.1838 223.796C60.0521 221.024 57.8936 218.125 57.0805 214.724C56.4029 211.89 56.9044 208.599 58.7839 206.473C59.1258 206.101 59.3409 205.63 59.3985 205.128C59.456 204.626 59.353 204.118 59.1042 203.679L59.0715 203.623Z" fill="#171717"/>
<path d="M109.506 400H0.573328C0.421272 400 0.275443 399.94 0.167923 399.832C0.0604036 399.724 0 399.579 0 399.427C0 399.275 0.0604036 399.129 0.167923 399.021C0.275443 398.914 0.421272 398.853 0.573328 398.853H109.506C109.658 398.853 109.804 398.914 109.911 399.021C110.019 399.129 110.079 399.275 110.079 399.427C110.079 399.579 110.019 399.724 109.911 399.832C109.804 399.94 109.658 400 109.506 400Z" fill="#CCCCCC"/>
</g>
<defs>
<clipPath id="clip0_1_651">
<rect width="570.461" height="400" fill="white"/>
</clipPath>
</defs>
</svg>
