<svg width="563" height="400" viewBox="0 0 563 400" fill="none" xmlns="http://www.w3.org/2000/svg">
<g clip-path="url(#clip0_1_581)">
<path d="M438.924 394.821C429.332 395.666 419.872 392.138 413.178 385.218C408.856 380.661 405.89 374.796 403.022 369.125C402.187 367.474 401.324 365.768 400.446 364.132C398.443 360.483 398.862 355.983 401.503 352.767C404.034 349.551 408.267 348.198 412.194 349.351L412.613 349.472L416.38 364.17C416.942 361.977 418.148 357.038 418.909 352.198L418.973 351.793L419.349 351.96C423.282 353.7 426.98 355.929 430.357 358.593C442.463 368.303 449.685 382.846 450.104 398.359L450.114 398.816L438.924 394.821Z" fill="#F2F2F2"/>
<path d="M561.717 399.798L378.918 400C378.487 399.998 378.139 399.646 378.141 399.215C378.144 398.787 378.49 398.441 378.918 398.438L561.717 398.237C562.148 398.236 562.499 398.584 562.5 399.015C562.501 399.446 562.153 399.797 561.722 399.798H561.717Z" fill="#CACACA"/>
<path d="M76.9832 73.1185H70.1531C68.7948 73.1185 67.6937 74.2196 67.6937 75.5778C67.6937 76.936 66.5926 78.037 65.2343 78.037H42.4635C41.1052 78.037 40.0041 76.936 40.0041 75.5778L39.5539 73.0848L35.4263 67.8229C35.1523 67.4679 34.7278 67.2618 34.2794 67.2658H26.5387C25.734 67.2668 25.082 67.9188 25.081 68.7234L24.9212 73.0848H21.9948C19.4099 73.0848 17.3145 75.1801 17.3145 77.7648V108.246C17.3145 110.54 19.174 112.399 21.4679 112.399H76.9832C79.2757 112.396 81.1333 110.539 81.1355 108.246V77.2706C81.1355 74.9774 79.2764 73.1185 76.9832 73.1185Z" fill="#F2F2F2"/>
<path d="M39.5561 72.9722H25.081V68.6108C25.082 67.8062 25.734 67.1542 26.5386 67.1533H34.2793C34.7278 67.1492 35.1523 67.3554 35.4263 67.7104L39.5561 72.9722Z" fill="#E6E6E6"/>
<path d="M46.9677 109.045H22.7981C21.205 109.043 19.9141 107.753 19.9123 106.16V99.55C19.9141 97.9571 21.205 96.6662 22.7981 96.6644H51.8073C53.4003 96.6662 54.6913 97.9571 54.6931 99.55V101.32C54.6882 105.585 51.2323 109.04 46.9677 109.045Z" fill="white"/>
<path d="M29.7555 101.65H23.7899C22.9818 101.653 22.3245 101 22.322 100.192C22.3194 99.3836 22.9724 98.7265 23.7806 98.7239H29.7555C30.5637 98.7213 31.2209 99.3743 31.2235 100.182C31.2261 100.99 30.573 101.648 29.7649 101.65H29.7555Z" fill="#F2F2F2"/>
<path d="M50.0162 106.265H23.7899C22.9818 106.267 22.3245 105.614 22.322 104.806C22.3194 103.998 22.9724 103.341 23.7806 103.339H50.0162C50.8243 103.336 51.4815 103.989 51.4841 104.797C51.4867 105.605 50.8337 106.262 50.0255 106.265H50.0162Z" fill="#F2F2F2"/>
<path d="M76.9832 168.856H70.1531C68.7948 168.856 67.6937 169.958 67.6937 171.316C67.6937 172.674 66.5926 173.775 65.2343 173.775H42.4635C41.1052 173.775 40.0041 172.674 40.0041 171.316L39.5539 168.823L35.4263 163.561C35.1523 163.206 34.7278 163 34.2794 163.004H26.5387C25.734 163.005 25.082 163.657 25.081 164.461L24.9212 168.823H21.9948C19.4099 168.823 17.3145 170.918 17.3145 173.503V203.984C17.3145 206.278 19.174 208.137 21.4679 208.137H76.9832C79.2757 208.134 81.1333 206.276 81.1355 203.984V173.009C81.1355 170.715 79.2764 168.856 76.9832 168.856Z" fill="#F2F2F2"/>
<path d="M39.5561 168.71H25.081V164.349C25.082 163.544 25.734 162.892 26.5386 162.891H34.2793C34.7278 162.887 35.1523 163.093 35.4263 163.448L39.5561 168.71Z" fill="#E6E6E6"/>
<path d="M46.9677 204.783H22.7981C21.205 204.781 19.9141 203.491 19.9123 201.898V195.288C19.9141 193.695 21.205 192.404 22.7981 192.402H51.8073C53.4003 192.404 54.6913 193.695 54.6931 195.288V197.058C54.6882 201.323 51.2323 204.778 46.9677 204.783Z" fill="white"/>
<path d="M29.7555 197.388H23.7899C22.9818 197.391 22.3245 196.738 22.322 195.93C22.3194 195.122 22.9724 194.464 23.7806 194.462H29.7555C30.5637 194.459 31.2209 195.112 31.2235 195.92C31.2261 196.728 30.573 197.386 29.7649 197.388H29.7555Z" fill="#F2F2F2"/>
<path d="M50.0162 202.003H23.7899C22.9818 202.005 22.3245 201.352 22.322 200.544C22.3194 199.736 22.9724 199.079 23.7806 199.076H50.0162C50.8243 199.074 51.4815 199.727 51.4841 200.535C51.4867 201.343 50.8337 202 50.0255 202.003H50.0162Z" fill="#F2F2F2"/>
<path d="M76.9832 264.594H70.1531C68.7948 264.594 67.6937 265.696 67.6937 267.054C67.6937 268.412 66.5926 269.513 65.2343 269.513H42.4635C41.1052 269.513 40.0041 268.412 40.0041 267.054L39.5539 264.561L35.4263 259.299C35.1523 258.944 34.7278 258.738 34.2794 258.742H26.5387C25.734 258.743 25.082 259.395 25.081 260.199L24.9212 264.561H21.9948C19.4099 264.561 17.3145 266.656 17.3145 269.241V299.722C17.3144 302.016 19.174 303.875 21.4679 303.875H76.9832C79.2757 303.872 81.1333 302.014 81.1355 299.722V268.746C81.1355 266.453 79.2764 264.594 76.9832 264.594Z" fill="#F2F2F2"/>
<path d="M39.5561 264.448H25.081V260.087C25.0819 259.282 25.734 258.63 26.5386 258.629H34.2793C34.7278 258.625 35.1523 258.831 35.4263 259.186L39.5561 264.448Z" fill="#E6E6E6"/>
<path d="M46.9677 300.521H22.7981C21.205 300.519 19.9141 299.229 19.9123 297.636V291.026C19.9141 289.433 21.205 288.142 22.7981 288.141H51.8073C53.4003 288.142 54.6913 289.433 54.6931 291.026V292.796C54.6883 297.061 51.2323 300.516 46.9677 300.521Z" fill="white"/>
<path d="M29.7556 293.126H23.7899C22.9818 293.126 22.3267 292.471 22.3267 291.663C22.3267 290.855 22.9818 290.2 23.7899 290.2H29.7556C30.5637 290.2 31.2188 290.855 31.2188 291.663C31.2188 292.471 30.5637 293.126 29.7556 293.126Z" fill="#F2F2F2"/>
<path d="M50.0162 297.741H23.7899C22.9817 297.741 22.3266 297.086 22.3266 296.278C22.3266 295.47 22.9817 294.814 23.7899 294.814H50.0161C50.8243 294.814 51.4794 295.47 51.4794 296.278C51.4794 297.086 50.8243 297.741 50.0162 297.741Z" fill="#F2F2F2"/>
<path d="M200.597 89.4484C198.368 89.4509 196.562 91.257 196.56 93.4857V164.234C196.562 166.463 198.368 168.269 200.597 168.271H300.675C302.904 168.269 304.71 166.463 304.712 164.234V93.4857C304.71 91.257 302.904 89.4509 300.675 89.4484H200.597Z" fill="#E6E6E6"/>
<path d="M264.683 164.828H203.425C201.026 164.826 199.082 162.882 199.08 160.483V96.3149C199.082 93.9162 201.026 91.9723 203.425 91.9696H297.847C300.246 91.9723 302.19 93.9162 302.193 96.3149V127.32C302.17 148.026 285.389 164.805 264.683 164.828Z" fill="white"/>
<path d="M240.687 109.728H226.13C225.362 109.728 224.74 109.105 224.74 108.338C224.74 107.57 225.362 106.948 226.13 106.948H240.687C241.455 106.948 242.077 107.57 242.077 108.338C242.077 109.105 241.455 109.728 240.687 109.728Z" fill="white"/>
<path d="M273.319 115.413H226.13C225.362 115.413 224.74 114.791 224.74 114.023C224.74 113.255 225.362 112.633 226.13 112.633H273.319C274.087 112.633 274.709 113.255 274.709 114.023C274.709 114.791 274.087 115.413 273.319 115.413Z" fill="#E6E6E6"/>
<path d="M273.319 121.939H226.13C225.362 121.939 224.74 121.317 224.74 120.549C224.74 119.781 225.362 119.159 226.13 119.159H273.319C274.087 119.159 274.709 119.781 274.709 120.549C274.709 121.317 274.087 121.939 273.319 121.939Z" fill="#E6E6E6"/>
<path d="M273.319 128.465H226.13C225.362 128.465 224.74 127.843 224.74 127.075C224.74 126.307 225.362 125.685 226.13 125.685H273.319C274.087 125.685 274.709 126.307 274.709 127.075C274.709 127.843 274.087 128.465 273.319 128.465Z" fill="#E6E6E6"/>
<path d="M273.319 134.991H226.13C225.362 134.991 224.74 134.368 224.74 133.601C224.74 132.833 225.362 132.211 226.13 132.211H273.319C274.087 132.211 274.709 132.833 274.709 133.601C274.709 134.368 274.087 134.991 273.319 134.991Z" fill="#E6E6E6"/>
<path d="M311.155 138.843H291.4C287.471 138.843 284.286 142.028 284.286 145.956C284.286 149.885 281.102 153.069 277.173 153.069H211.313C207.385 153.069 204.2 149.885 204.2 145.956L202.898 138.746L190.96 123.527C190.167 122.5 188.939 121.904 187.642 121.915H165.254C162.927 121.918 161.041 123.804 161.038 126.131L160.576 138.746H152.112C144.635 138.746 138.575 144.806 138.575 152.282V240.443C138.575 247.077 143.953 252.455 150.588 252.455H311.154C317.785 252.447 323.158 247.073 323.164 240.443V150.852C323.164 144.22 317.787 138.843 311.155 138.843Z" fill="#E6E6E6"/>
<path d="M202.904 138.42H161.038V125.806C161.041 123.479 162.927 121.593 165.254 121.59H187.642C188.939 121.578 190.167 122.175 190.96 123.201L202.904 138.42Z" fill="#CCCCCC"/>
<path d="M224.341 242.754H154.435C149.828 242.749 146.094 239.015 146.089 234.408V215.291C146.094 210.684 149.828 206.95 154.435 206.945H238.338C242.946 206.95 246.68 210.684 246.685 215.291V220.411C246.671 232.745 236.675 242.74 224.341 242.754Z" fill="white"/>
<path d="M174.558 221.365H157.304C154.966 221.365 153.072 219.471 153.072 217.133C153.072 214.796 154.966 212.901 157.304 212.901H174.558C176.896 212.898 178.793 214.791 178.796 217.128C178.799 219.465 176.906 221.362 174.569 221.365H174.558Z" fill="white"/>
<path d="M233.158 234.712H157.304C154.966 234.712 153.072 232.817 153.072 230.48C153.072 228.143 154.966 226.248 157.304 226.248H233.158C235.495 226.245 237.393 228.138 237.396 230.475C237.399 232.812 235.506 234.709 233.169 234.712L233.158 234.712Z" fill="white"/>
<path d="M373.835 28.0448H1.15967C0.505358 28.0308 -0.0137116 27.4891 0.000276192 26.8349C0.0138443 26.2003 0.525064 25.6891 1.15967 25.6755H373.835C374.489 25.6895 375.008 26.2313 374.994 26.8855C374.98 27.5201 374.469 28.0313 373.835 28.0448Z" fill="#CACACA"/>
<path d="M518.396 391.423H512.245L509.318 367.694L518.398 367.695L518.396 391.423Z" fill="#9E616A"/>
<path d="M518.613 397.841L499.695 397.84V397.601C499.695 393.534 502.992 390.238 507.058 390.238L510.514 387.616L516.962 390.238L518.613 390.238L518.613 397.841Z" fill="#171717"/>
<path d="M499.399 370.099L493.508 371.874L483.857 350L492.55 347.38L499.399 370.099Z" fill="#9E616A"/>
<path d="M501.459 376.181L483.345 381.64L483.276 381.411C482.103 377.518 484.307 373.41 488.201 372.236L490.753 368.729L497.683 369.378L499.264 368.902L501.459 376.181Z" fill="#171717"/>
<path d="M490.951 241.084C490.951 241.084 484.369 251.13 482.04 257.965C476.334 274.716 473.605 270.697 467.034 311.423C475.95 341.505 484.779 361.336 484.779 361.336C484.779 361.336 498.049 357.605 498.049 355.117C498.049 352.629 489.583 322.291 488.339 318.766C487.095 315.242 485.021 313.998 486.887 311.095C488.753 308.193 504.081 282.818 504.081 282.818C504.081 282.818 503.667 326.068 504.081 326.898C504.496 327.727 506.49 377.532 506.49 377.532C506.49 377.532 520.136 384.516 520.964 377.073C521.171 375.207 521.433 325.852 521.433 325.022C521.433 324.193 534.065 246.919 528.053 243.81C522.04 240.7 490.951 241.084 490.951 241.084Z" fill="#171717"/>
<path d="M463.373 248.244C463.724 245.079 466.574 242.798 469.739 243.149C470.076 243.187 470.41 243.254 470.736 243.35L482.657 226.687L486.476 236.626L474.569 250.925C473.462 253.929 470.129 255.466 467.125 254.359C464.612 253.432 463.06 250.904 463.373 248.244Z" fill="#9E616A"/>
<path d="M479.815 245.661L471.888 239.651L488.528 214.028L501.895 162.538L512.478 172.391C514.31 172.956 515.825 174.256 516.662 175.981C517.513 177.718 519.321 174.809 518.645 176.622L503.759 216.813L503.737 216.841L479.815 245.661Z" fill="#171717"/>
<path d="M507.833 160.428L496.559 164.809L491.925 171.209L480.692 228.819L481.139 230.763L480.021 232.263L479.581 234.515L480.67 236.39L478.758 238.739C478.758 238.739 479.263 240.611 481.139 256.554C482.297 266.392 501.022 260.332 501.022 260.332L509.523 172.963L507.833 160.428Z" fill="#171717"/>
<path d="M531.898 167.872L522.171 159.172L507.788 160.039L499.507 170.108L483.447 253.276L517.212 256.089L531.898 167.872Z" fill="#E6E6E6"/>
<path d="M523.372 160.571L532.219 167.363L535.612 172.314C541.559 175.713 544.309 182.816 542.2 189.333L531.455 227.209L531.204 227.983C530.948 228.733 532.173 234.672 531.564 241.069C531.405 242.735 533.338 244.593 533.193 246.238C533.079 247.525 530.883 248.619 530.786 249.802C530.698 250.868 531.854 251.883 531.786 252.803C531.612 254.595 531.123 256.343 530.343 257.965C521.189 261.752 503.512 259.005 503.512 259.005L519.53 172.696L523.372 160.571Z" fill="#171717"/>
<path d="M513.483 155.824C522.276 155.824 529.405 148.696 529.405 139.903C529.405 131.109 522.276 123.981 513.483 123.981C504.689 123.981 497.56 131.109 497.56 139.903C497.56 148.696 504.689 155.824 513.483 155.824Z" fill="#9E616A"/>
<path d="M534.127 140.583C533.203 145.817 529.466 150.994 524.246 151.988L524.148 151.856C524.438 149.588 524.565 147.301 524.528 145.015C524.508 143.549 523.303 142.377 521.837 142.397C520.744 142.411 519.772 143.095 519.388 144.119C519.482 142.126 518.638 140.091 518.094 138.168C517.55 136.25 517.179 134.431 515.285 133.803C513.704 133.282 511.983 133.643 510.361 134.014C508.119 134.52 506.979 134.403 506.778 133.835C505.949 134.139 505.119 134.442 504.289 134.745C503.645 134.979 502.923 134.757 502.522 134.201L502.515 134.192C501.066 134.567 499.617 134.939 498.168 135.308C497.893 134.38 497.669 133.437 497.497 132.485C498.738 131.472 499.627 130.091 500.034 128.541C499.166 129.041 498.224 129.402 497.244 129.61C497.175 127.389 498.142 125.262 499.861 123.852C503.289 121.099 506.726 119.411 511.116 119.632C516.424 119.899 518.014 125.611 522.839 123.383C528.936 120.569 535.051 135.35 534.127 140.583Z" fill="#171717"/>
<path d="M444.867 150.29C443.473 149.169 441.434 149.387 440.309 150.779L404.664 194.994C403.542 196.388 403.761 198.427 405.153 199.551L467.698 249.968C469.092 251.089 471.131 250.871 472.255 249.479L507.901 205.264C509.022 203.87 508.803 201.831 507.412 200.706L444.867 150.29Z" fill="#CCCCCC"/>
<path d="M446.939 229.684L408.655 198.824C407.157 197.614 406.921 195.42 408.128 193.919L440.459 153.817C441.669 152.319 443.863 152.083 445.364 153.29L504.374 200.858C505.872 202.068 506.108 204.262 504.901 205.763L489.279 225.14C478.832 238.068 459.891 240.101 446.939 229.684Z" fill="white"/>
<path d="M459.704 183.16L450.606 175.826C450.125 175.442 450.047 174.739 450.432 174.258C450.817 173.777 451.519 173.699 452 174.084L452.007 174.089L461.105 181.422C461.583 181.811 461.656 182.514 461.267 182.992C460.88 183.468 460.183 183.543 459.704 183.16Z" fill="white"/>
<path d="M477.233 203.152L447.742 179.38C447.261 178.995 447.183 178.293 447.567 177.811C447.952 177.33 448.655 177.252 449.136 177.637L449.143 177.642L478.634 201.415C479.112 201.803 479.185 202.506 478.796 202.984C478.41 203.46 477.712 203.535 477.233 203.152Z" fill="#E6E6E6"/>
<path d="M473.945 207.231L444.454 183.458C443.973 183.073 443.895 182.371 444.279 181.89C444.664 181.408 445.366 181.33 445.848 181.715L445.855 181.721L475.346 205.493C475.824 205.882 475.897 206.585 475.508 207.063C475.122 207.538 474.424 207.613 473.945 207.231Z" fill="#E6E6E6"/>
<path d="M470.657 211.309L441.166 187.537C440.685 187.152 440.606 186.45 440.991 185.968C441.376 185.487 442.078 185.409 442.56 185.794L442.567 185.799L472.058 209.572C472.536 209.96 472.609 210.663 472.22 211.141C471.834 211.617 471.136 211.692 470.657 211.309Z" fill="#E6E6E6"/>
<path d="M467.369 215.388L437.878 191.615C437.397 191.23 437.318 190.528 437.703 190.047C438.088 189.565 438.79 189.487 439.272 189.872L439.279 189.878L468.77 213.65C469.248 214.039 469.321 214.742 468.932 215.22C468.546 215.695 467.848 215.77 467.369 215.388Z" fill="#E6E6E6"/>
<path d="M460.947 214.601C462.993 212.161 466.629 211.841 469.07 213.886C469.33 214.104 469.57 214.345 469.788 214.605L488.944 207.336L486.618 217.725L468.783 223.035C466.197 224.923 462.571 224.357 460.683 221.771C459.104 219.607 459.213 216.643 460.947 214.601Z" fill="#9E616A"/>
<path d="M476.066 222.027L472.797 212.632L500.845 200.517L535.698 174.625L540.098 180.055C542.523 183.049 542.062 187.441 539.068 189.866C538.97 189.945 538.87 190.022 538.769 190.096L511.982 211.272L511.949 211.284L503.635 213.773L501.773 213.882L499.786 214.925L498.021 214.351L495.578 216.185L492.773 217.025L476.066 222.027Z" fill="#171717"/>
<path d="M316.648 263.006C307.172 263.006 299.49 255.325 299.49 245.849C299.49 236.374 307.172 228.693 316.648 228.693C326.124 228.693 333.806 236.374 333.806 245.849C333.806 255.325 326.124 263.006 316.648 263.006Z" fill="white"/>
<path d="M323.418 244.157H318.341V239.08C318.341 238.145 317.583 237.387 316.648 237.387C315.713 237.387 314.956 238.145 314.956 239.08V244.157H309.878C308.943 244.157 308.186 244.915 308.186 245.849C308.186 246.784 308.943 247.542 309.878 247.542H314.956V252.619C314.956 253.554 315.713 254.311 316.648 254.311C317.583 254.311 318.341 253.554 318.341 252.619V247.542H323.418C324.353 247.542 325.111 246.784 325.111 245.849C325.111 244.915 324.353 244.157 323.418 244.157Z" fill="white"/>
<path d="M79.6149 120.282C75.0839 120.282 71.4108 116.609 71.4108 112.078C71.4108 107.548 75.0839 103.875 79.6149 103.875C84.1459 103.875 87.8189 107.547 87.8189 112.078C87.8189 116.609 84.1459 120.282 79.6149 120.282Z" fill="#E6E6E6"/>
<path d="M82.852 111.269H76.3777C75.9308 111.269 75.5686 111.632 75.5688 112.079C75.569 112.525 75.931 112.887 76.3777 112.888H82.852C83.2989 112.888 83.6614 112.526 83.6616 112.079C83.6618 111.632 83.2996 111.269 82.8526 111.269H82.852Z" fill="white"/>
<path d="M79.6149 214.708C75.0839 214.708 71.4108 211.035 71.4108 206.505C71.4108 201.974 75.0839 198.301 79.6149 198.301C84.1459 198.301 87.8189 201.974 87.8189 206.505C87.8189 211.035 84.1459 214.708 79.6149 214.708Z" fill="#E6E6E6"/>
<path d="M82.852 205.696H76.3777C75.9308 205.696 75.5686 206.058 75.5688 206.505C75.569 206.952 75.931 207.314 76.3777 207.314H82.852C83.2989 207.314 83.6614 206.952 83.6616 206.505C83.6618 206.058 83.2996 205.696 82.8526 205.696H82.852Z" fill="white"/>
<path d="M79.6149 309.135C75.0839 309.135 71.4108 305.462 71.4108 300.931C71.4108 296.401 75.0839 292.728 79.6149 292.728C84.1459 292.728 87.8189 296.401 87.8189 300.931C87.8189 305.462 84.1458 309.135 79.6149 309.135Z" fill="#E6E6E6"/>
<path d="M82.852 300.122H76.3777C75.9308 300.122 75.5686 300.485 75.5688 300.932C75.569 301.378 75.931 301.74 76.3777 301.741H82.852C83.2989 301.741 83.6614 301.379 83.6616 300.932C83.6618 300.485 83.2996 300.122 82.8526 300.122H82.852Z" fill="white"/>
<path d="M50.4128 11.3378C53.4756 11.3378 55.9585 8.79977 55.9585 5.66892C55.9585 2.53806 53.4756 0 50.4128 0C47.35 0 44.8671 2.53806 44.8671 5.66892C44.8671 8.79977 47.35 11.3378 50.4128 11.3378Z" fill="white"/>
<path d="M69.5706 11.3378C72.6334 11.3378 75.1162 8.79977 75.1162 5.66892C75.1162 2.53806 72.6334 0 69.5706 0C66.5078 0 64.0249 2.53806 64.0249 5.66892C64.0249 8.79977 66.5078 11.3378 69.5706 11.3378Z" fill="white"/>
<path d="M88.7283 11.3378C91.7911 11.3378 94.274 8.79977 94.274 5.66892C94.274 2.53806 91.7911 0 88.7283 0C85.6656 0 83.1827 2.53806 83.1827 5.66892C83.1827 8.79977 85.6656 11.3378 88.7283 11.3378Z" fill="white"/>
<path d="M110.573 10.1494C110.403 10.1494 110.233 10.0835 110.105 9.9522L106.363 6.12726C106.113 5.87239 106.113 5.46511 106.363 5.21025L110.105 1.38563C110.358 1.12692 110.774 1.12276 111.032 1.37539C111.291 1.62866 111.295 2.04394 111.042 2.30264L107.749 5.66875L111.042 9.03518C111.295 9.29389 111.291 9.70917 111.032 9.96244C110.904 10.0873 110.739 10.1494 110.573 10.1494Z" fill="white"/>
<path d="M116.861 10.1494C116.696 10.1494 116.53 10.0873 116.403 9.96243C116.144 9.70916 116.139 9.29421 116.392 9.03517L119.685 5.66875L116.392 2.30264C116.139 2.04393 116.144 1.62865 116.403 1.37538C116.661 1.12179 117.077 1.1266 117.33 1.38562L121.072 5.21024C121.321 5.46511 121.321 5.87239 121.072 6.12725L117.33 9.95219C117.202 10.0835 117.031 10.1494 116.861 10.1494Z" fill="white"/>
<path d="M312.618 0.656372H305.66C304.866 0.656372 304.224 1.29898 304.224 2.09244V9.0564C304.224 9.84985 304.866 10.4925 305.66 10.4925H312.618C313.411 10.4925 314.061 9.84985 314.061 9.0564V2.09244C314.061 1.29898 313.411 0.656372 312.618 0.656372Z" fill="white"/>
<path d="M295.568 0.656372H288.61C287.816 0.656372 287.174 1.29898 287.174 2.09244V9.0564C287.174 9.84985 287.816 10.4925 288.61 10.4925H295.568C296.361 10.4925 297.01 9.84985 297.01 9.0564V2.09244C297.01 1.29898 296.361 0.656372 295.568 0.656372Z" fill="white"/>
<path d="M328.684 0.984253H321.727C320.933 0.984253 320.29 1.62686 320.29 2.42032V9.38428C320.29 10.1777 320.933 10.8203 321.727 10.8203H328.684C329.478 10.8203 330.127 10.1777 330.127 9.38428V2.42032C330.127 1.62686 329.478 0.984253 328.684 0.984253Z" fill="white"/>
<path d="M223.811 3.63342H168.194C167.224 3.63342 166.443 4.42032 166.443 5.38427C166.443 6.34823 167.224 7.13509 168.194 7.13509H223.811C224.775 7.13509 225.562 6.34819 225.562 5.38427C225.562 4.42036 224.775 3.63342 223.811 3.63342Z" fill="white"/>
</g>
<defs>
<clipPath id="clip0_1_581">
<rect width="562.5" height="400" fill="white"/>
</clipPath>
</defs>
</svg>
