<svg width="446" height="400" viewBox="0 0 446 400" fill="none" xmlns="http://www.w3.org/2000/svg">
<g clip-path="url(#clip0_1_556)">
<path d="M228.25 0.871977L213.748 4.6117L35.0827 50.6859L20.5808 54.4257C13.5418 56.2493 7.51364 60.7907 3.8188 67.0534C0.123959 73.3161 -0.935788 80.7888 0.872053 87.8318L63.7552 331.678C65.5788 338.717 70.1202 344.746 76.3829 348.44C82.6456 352.135 90.1182 353.195 97.1613 351.387L97.1988 351.378L304.793 297.843L304.83 297.834C311.869 296.01 317.898 291.468 321.592 285.206C325.287 278.943 326.347 271.47 324.539 264.427L261.656 20.5809C259.832 13.5419 255.291 7.51365 249.028 3.81878C242.766 0.123919 235.293 -0.935852 228.25 0.871977Z" fill="#F2F2F2"/>
<path d="M230.222 8.51727L213.045 12.9467L39.7286 57.6416L22.5524 62.071C17.5398 63.3697 13.2469 66.6037 10.6157 71.0635C7.98454 75.5233 7.22986 80.8448 8.51727 85.8603L71.4004 329.707C72.699 334.719 75.9331 339.012 80.3929 341.643C84.8527 344.275 90.1741 345.029 95.1897 343.742L95.2271 343.732L302.821 290.198L302.859 290.188C307.872 288.889 312.164 285.655 314.795 281.196C317.427 276.736 318.181 271.414 316.894 266.399L254.011 22.5525C252.712 17.5399 249.478 13.2471 245.018 10.6159C240.559 7.98465 235.237 7.22994 230.222 8.51727Z" fill="white"/>
<path d="M217.252 87.4812L112.235 114.563C111.062 114.865 109.817 114.69 108.774 114.074C107.731 113.459 106.975 112.454 106.672 111.281C106.37 110.108 106.546 108.863 107.161 107.82C107.777 106.776 108.781 106.02 109.954 105.718L214.971 78.6361C216.144 78.3349 217.388 78.5114 218.43 79.1271C219.473 79.7427 220.228 80.7469 220.53 81.9192C220.833 83.0914 220.657 84.3358 220.042 85.3787C219.428 86.4216 218.424 87.1779 217.252 87.4812Z" fill="#F2F2F2"/>
<path d="M239.344 97.7028L116.084 129.489C114.911 129.792 113.666 129.616 112.623 129C111.58 128.385 110.824 127.38 110.521 126.207C110.219 125.034 110.395 123.789 111.01 122.746C111.626 121.702 112.63 120.946 113.803 120.644L237.063 88.8577C238.236 88.5552 239.481 88.7311 240.524 89.3466C241.568 89.9621 242.324 90.9668 242.626 92.1398C242.929 93.3127 242.753 94.5577 242.137 95.601C241.522 96.6443 240.517 97.4003 239.344 97.7028Z" fill="#F2F2F2"/>
<path d="M234.502 154.372L129.485 181.454C128.904 181.604 128.3 181.638 127.706 181.554C127.112 181.47 126.54 181.27 126.024 180.965C125.507 180.66 125.056 180.257 124.695 179.777C124.335 179.298 124.072 178.753 123.922 178.172C123.772 177.591 123.738 176.986 123.822 176.393C123.906 175.799 124.106 175.227 124.411 174.711C124.716 174.194 125.119 173.742 125.598 173.382C126.078 173.021 126.623 172.759 127.204 172.609L232.221 145.527C232.802 145.377 233.406 145.343 234 145.427C234.594 145.511 235.166 145.711 235.682 146.016C236.199 146.321 236.65 146.724 237.011 147.203C237.371 147.683 237.634 148.228 237.784 148.809C237.934 149.39 237.968 149.994 237.884 150.588C237.8 151.182 237.6 151.754 237.295 152.27C236.99 152.787 236.587 153.238 236.107 153.599C235.628 153.96 235.083 154.222 234.502 154.372Z" fill="#F2F2F2"/>
<path d="M256.594 164.594L133.334 196.38C132.753 196.53 132.149 196.564 131.555 196.48C130.961 196.396 130.39 196.196 129.873 195.891C129.356 195.586 128.905 195.183 128.544 194.703C128.184 194.224 127.921 193.679 127.771 193.098C127.621 192.517 127.587 191.912 127.671 191.319C127.755 190.725 127.955 190.153 128.26 189.637C128.565 189.12 128.968 188.669 129.448 188.308C129.927 187.947 130.472 187.685 131.053 187.535L254.313 155.749C255.486 155.446 256.731 155.622 257.774 156.237C258.818 156.853 259.574 157.858 259.876 159.031C260.179 160.204 260.003 161.449 259.387 162.492C258.772 163.535 257.767 164.291 256.594 164.594Z" fill="#F2F2F2"/>
<path d="M251.752 221.263L146.735 248.345C145.562 248.646 144.318 248.47 143.275 247.854C142.233 247.239 141.477 246.234 141.175 245.062C140.873 243.889 141.048 242.645 141.663 241.602C142.278 240.559 143.282 239.803 144.454 239.5L249.471 212.418C250.644 212.115 251.889 212.291 252.932 212.907C253.975 213.522 254.731 214.527 255.034 215.7C255.336 216.873 255.16 218.118 254.545 219.161C253.929 220.204 252.925 220.96 251.752 221.263Z" fill="#F2F2F2"/>
<path d="M273.844 231.485L150.584 263.271C150.003 263.421 149.398 263.456 148.804 263.372C148.21 263.288 147.638 263.089 147.121 262.784C146.604 262.479 146.152 262.076 145.791 261.596C145.43 261.117 145.167 260.571 145.017 259.99C144.867 259.409 144.833 258.804 144.917 258.209C145.001 257.615 145.202 257.043 145.507 256.527C145.812 256.01 146.216 255.558 146.696 255.198C147.176 254.837 147.722 254.575 148.303 254.426L271.563 222.639C272.736 222.337 273.981 222.513 275.024 223.128C276.067 223.744 276.823 224.749 277.126 225.922C277.428 227.094 277.253 228.339 276.637 229.383C276.022 230.426 275.017 231.182 273.844 231.485Z" fill="#F2F2F2"/>
<path d="M94.3073 142.331L57.1429 151.915C56.5805 152.06 55.9838 151.975 55.4837 151.68C54.9836 151.385 54.621 150.904 54.4754 150.342L45.9443 117.26C45.8 116.698 45.8846 116.101 46.1796 115.601C46.4746 115.101 46.956 114.738 47.5181 114.593L84.6825 105.009C85.2449 104.864 85.8416 104.949 86.3417 105.244C86.8418 105.539 87.2044 106.02 87.35 106.582L95.8811 139.664C96.0254 140.226 95.9408 140.823 95.6458 141.323C95.3508 141.823 94.8694 142.186 94.3073 142.331Z" fill="#E6E6E6"/>
<path d="M111.557 209.222L74.3927 218.806C73.8303 218.951 73.2336 218.866 72.7335 218.571C72.2334 218.276 71.8708 217.794 71.7252 217.232L63.1941 184.151C63.0498 183.588 63.1344 182.992 63.4294 182.492C63.7245 181.992 64.2058 181.629 64.7679 181.483L101.932 171.899C102.495 171.755 103.091 171.84 103.591 172.135C104.092 172.43 104.454 172.911 104.6 173.473L113.131 206.555C113.275 207.117 113.191 207.714 112.896 208.214C112.601 208.714 112.119 209.077 111.557 209.222Z" fill="#E6E6E6"/>
<path d="M128.807 276.113L91.6425 285.697C91.0801 285.841 90.4834 285.757 89.9834 285.462C89.4833 285.167 89.1207 284.685 88.975 284.123L80.444 251.042C80.2996 250.479 80.3842 249.883 80.6793 249.383C80.9743 248.883 81.4557 248.52 82.0177 248.374L119.182 238.79C119.745 238.646 120.341 238.731 120.841 239.026C121.341 239.321 121.704 239.802 121.85 240.364L130.381 273.446C130.525 274.008 130.44 274.605 130.145 275.105C129.85 275.605 129.369 275.967 128.807 276.113Z" fill="#E6E6E6"/>
<path d="M373.089 62.6841H158.626C151.354 62.6923 144.383 65.5845 139.241 70.7261C134.1 75.8678 131.207 82.8391 131.199 90.1105V341.935C131.207 349.206 134.1 356.177 139.241 361.319C144.383 366.461 151.354 369.353 158.626 369.361H373.089C380.36 369.353 387.331 366.461 392.473 361.319C397.615 356.177 400.507 349.206 400.515 341.935V90.1105C400.507 82.8391 397.615 75.8678 392.473 70.7261C387.331 65.5845 380.36 62.6923 373.089 62.6841Z" fill="#E6E6E6"/>
<path d="M373.089 70.5796H158.626C153.447 70.5854 148.483 72.645 144.822 76.3065C141.16 79.968 139.1 84.9324 139.095 90.1105V341.935C139.1 347.113 141.16 352.077 144.822 355.739C148.483 359.4 153.447 361.46 158.626 361.466H373.089C378.267 361.46 383.231 359.4 386.893 355.739C390.554 352.077 392.614 347.113 392.62 341.935V90.1105C392.614 84.9324 390.554 79.9681 386.893 76.3066C383.231 72.6451 378.267 70.5855 373.089 70.5796Z" fill="white"/>
<path d="M395.62 400C423.27 400 445.686 377.585 445.686 349.934C445.686 322.284 423.27 299.869 395.62 299.869C367.969 299.869 345.554 322.284 345.554 349.934C345.554 377.585 367.969 400 395.62 400Z" fill="white"/>
<path d="M419.564 343.404H402.15V325.99C402.15 324.258 401.462 322.597 400.237 321.372C399.013 320.147 397.352 319.459 395.62 319.459C393.888 319.459 392.227 320.147 391.002 321.372C389.777 322.597 389.089 324.258 389.089 325.99V343.404H371.675C369.943 343.404 368.282 344.092 367.058 345.317C365.833 346.541 365.145 348.202 365.145 349.934C365.145 351.666 365.833 353.327 367.058 354.552C368.282 355.777 369.943 356.465 371.675 356.465H389.089V373.879C389.089 375.611 389.777 377.272 391.002 378.496C392.227 379.721 393.888 380.409 395.62 380.409C397.352 380.409 399.013 379.721 400.237 378.496C401.462 377.272 402.15 375.611 402.15 373.879V356.465H419.564C421.296 356.465 422.957 355.777 424.182 354.552C425.407 353.327 426.095 351.666 426.095 349.934C426.095 348.202 425.407 346.541 424.182 345.317C422.957 344.092 421.296 343.404 419.564 343.404Z" fill="white"/>
<path d="M340.812 208.956H232.359C231.759 208.957 231.165 208.839 230.61 208.61C230.055 208.381 229.551 208.045 229.127 207.62C228.702 207.196 228.365 206.692 228.135 206.138C227.905 205.584 227.787 204.989 227.787 204.389C227.787 203.789 227.905 203.194 228.135 202.64C228.365 202.086 228.702 201.582 229.127 201.158C229.551 200.734 230.055 200.397 230.61 200.168C231.165 199.939 231.759 199.821 232.359 199.822H340.812C342.022 199.823 343.183 200.305 344.038 201.161C344.894 202.018 345.374 203.179 345.374 204.389C345.374 205.599 344.894 206.76 344.038 207.617C343.183 208.473 342.022 208.955 340.812 208.956Z" fill="#E6E6E6"/>
<path d="M359.652 224.371H232.359C231.759 224.371 231.165 224.254 230.61 224.024C230.055 223.795 229.551 223.459 229.127 223.035C228.702 222.611 228.365 222.107 228.135 221.552C227.905 220.998 227.787 220.404 227.787 219.803C227.787 219.203 227.905 218.609 228.135 218.054C228.365 217.5 228.702 216.996 229.127 216.572C229.551 216.148 230.055 215.812 230.61 215.582C231.165 215.353 231.759 215.236 232.359 215.236H359.652C360.863 215.236 362.025 215.717 362.881 216.574C363.738 217.43 364.219 218.592 364.219 219.803C364.219 221.015 363.738 222.176 362.881 223.033C362.025 223.889 360.863 224.371 359.652 224.371Z" fill="#E6E6E6"/>
<path d="M340.812 278.036H232.359C231.759 278.036 231.165 277.919 230.61 277.689C230.055 277.46 229.551 277.124 229.127 276.7C228.702 276.276 228.365 275.772 228.135 275.217C227.905 274.663 227.787 274.069 227.787 273.468C227.787 272.868 227.905 272.274 228.135 271.719C228.365 271.165 228.702 270.661 229.127 270.237C229.551 269.813 230.055 269.477 230.61 269.247C231.165 269.018 231.759 268.9 232.359 268.901H340.812C342.023 268.901 343.185 269.382 344.042 270.239C344.898 271.095 345.379 272.257 345.379 273.468C345.379 274.68 344.898 275.841 344.042 276.698C343.185 277.554 342.023 278.036 340.812 278.036Z" fill="#E6E6E6"/>
<path d="M359.652 293.45H232.359C231.759 293.451 231.165 293.333 230.61 293.104C230.055 292.874 229.551 292.538 229.127 292.114C228.702 291.69 228.365 291.186 228.135 290.632C227.905 290.077 227.787 289.483 227.787 288.883C227.787 288.282 227.905 287.688 228.135 287.134C228.365 286.579 228.702 286.076 229.127 285.651C229.551 285.227 230.055 284.891 230.61 284.662C231.165 284.432 231.759 284.315 232.359 284.315H359.652C360.252 284.315 360.846 284.432 361.401 284.662C361.956 284.891 362.46 285.227 362.885 285.651C363.309 286.076 363.646 286.579 363.876 287.134C364.106 287.688 364.224 288.282 364.224 288.883C364.224 289.483 364.106 290.077 363.876 290.632C363.646 291.186 363.309 291.69 362.885 292.114C362.46 292.538 361.956 292.874 361.401 293.104C360.846 293.333 360.252 293.451 359.652 293.45Z" fill="#E6E6E6"/>
<path d="M208.065 231.368H169.685C169.105 231.368 168.548 231.137 168.137 230.726C167.727 230.315 167.496 229.759 167.495 229.178V195.014C167.496 194.434 167.727 193.877 168.137 193.466C168.548 193.056 169.105 192.825 169.685 192.824H208.065C208.646 192.825 209.203 193.056 209.613 193.466C210.024 193.877 210.255 194.434 210.255 195.014V229.178C210.255 229.759 210.024 230.315 209.613 230.726C209.203 231.137 208.646 231.368 208.065 231.368Z" fill="#E6E6E6"/>
<path d="M208.065 300.447H169.685C169.105 300.447 168.548 300.216 168.137 299.805C167.727 299.395 167.496 298.838 167.495 298.257V264.094C167.496 263.513 167.727 262.956 168.137 262.546C168.548 262.135 169.105 261.904 169.685 261.904H208.065C208.646 261.904 209.203 262.135 209.613 262.546C210.024 262.956 210.255 263.513 210.255 264.094V298.257C210.255 298.838 210.024 299.395 209.613 299.805C209.203 300.216 208.646 300.447 208.065 300.447Z" fill="#E6E6E6"/>
<path d="M340.932 132.057H260.975C259.763 132.057 258.602 131.576 257.745 130.72C256.889 129.863 256.408 128.701 256.408 127.49C256.408 126.279 256.889 125.117 257.745 124.261C258.602 123.404 259.763 122.923 260.975 122.923H340.932C342.144 122.923 343.305 123.404 344.162 124.261C345.018 125.117 345.5 126.279 345.5 127.49C345.5 128.701 345.018 129.863 344.162 130.72C343.305 131.576 342.144 132.057 340.932 132.057Z" fill="#CCCCCC"/>
<path d="M359.772 147.472H260.975C260.375 147.472 259.781 147.354 259.227 147.124C258.673 146.895 258.169 146.558 257.745 146.134C257.321 145.71 256.985 145.206 256.755 144.652C256.526 144.098 256.408 143.504 256.408 142.904C256.408 142.305 256.526 141.711 256.755 141.157C256.985 140.603 257.321 140.099 257.745 139.675C258.169 139.251 258.673 138.914 259.227 138.685C259.781 138.455 260.375 138.337 260.975 138.337H359.772C360.983 138.337 362.145 138.818 363.002 139.675C363.858 140.531 364.339 141.693 364.339 142.904C364.339 144.116 363.858 145.277 363.002 146.134C362.145 146.991 360.983 147.472 359.772 147.472Z" fill="#CCCCCC"/>
<path d="M243.279 166.152H169.565C168.984 166.151 168.428 165.92 168.017 165.51C167.606 165.099 167.375 164.543 167.375 163.962V106.432C167.375 105.852 167.606 105.295 168.017 104.885C168.428 104.474 168.984 104.243 169.565 104.242H243.279C243.859 104.243 244.416 104.474 244.827 104.885C245.237 105.295 245.468 105.852 245.469 106.432V163.962C245.468 164.543 245.237 165.099 244.827 165.51C244.416 165.92 243.859 166.151 243.279 166.152Z" fill="white"/>
</g>
<defs>
<clipPath id="clip0_1_556">
<rect width="445.686" height="400" fill="white"/>
</clipPath>
</defs>
</svg>
